<svg xmlns="http://www.w3.org/2000/svg" viewBox="0 0 151.62 162.91"><defs><style>.cls-1{isolation:isolate;}.cls-2{fill:#6b99d1;opacity:0.15;mix-blend-mode:multiply;}.cls-3{fill:#2d2979;}.cls-4{fill:#ffa8a7;}.cls-5{fill:#543354;}.cls-6{fill:#f5fbfb;}.cls-7{fill:#f28f8f;}.cls-8{fill:#c4d9ff;}.cls-9{fill:#aacaf9;}.cls-10{fill:#7fa8e6;}.cls-11{opacity:0.9;}.cls-12,.cls-28{fill:#57f7e0;}.cls-12,.cls-14,.cls-15{opacity:0.8;}.cls-13,.cls-29{fill:none;stroke:#e9fffb;stroke-miterlimit:10;}.cls-14,.cls-16{fill:#0b3fa5;}.cls-17{fill:#c8e2ff;}.cls-18{fill:#a5cbfa;}.cls-19{fill:#031f60;}.cls-20{fill:#1e3779;}.cls-21{fill:#344593;}.cls-22{fill:#2b3d89;}.cls-23{fill:#dceeff;}.cls-24{opacity:0.4;}.cls-25{fill:#fafdff;}.cls-26{fill:#7aa3e5;}.cls-27{opacity:0.6;}.cls-29{stroke-linecap:round;}</style></defs><title>asset-38</title><g class="cls-1"><g id="Layer_2" data-name="Layer 2"><g id="Objects"><path class="cls-2" d="M145.94,104.46,101.22,78.64a5.91,5.91,0,0,0-5.34,0L1.11,133.37c-1.48.85-1.48,2.23,0,3.08l44.72,25.82a5.91,5.91,0,0,0,5.34,0l94.77-54.73C147.42,106.69,147.42,105.31,145.94,104.46Z"/><path class="cls-2" d="M9.9,107.91,18.44,103c5.79-3.35,13.79-4.15,17.87-1.8s2.68,7-3.11,10.32l-8.54,4.93c-5.79,3.35-13.8,4.15-17.87,1.8S4.1,111.26,9.9,107.91Z"/><path class="cls-3" d="M20.12,100.51a4.35,4.35,0,0,0,.43,3A13.51,13.51,0,0,1,21,107.8a.87.87,0,0,0,1.12-.06s-.1-4.06,1-3.74Z"/><path class="cls-4" d="M29.29,106.83c-1.12-1.61-2.89-6.77-3.25-8a8.15,8.15,0,0,1-.52-2.55c.05-1.79.59-6.78.59-6.78h-4.3L21.88,96a4.55,4.55,0,0,1-.35,2c-.22.56-.77,2-1,2.54a2,2,0,0,0,.65,2.56A15.94,15.94,0,0,1,24,105.63c.8,1,.75,2.32,2,3.5s3.75.27,4.22-.14C30.92,108.43,30.69,107.92,29.29,106.83Z"/><path class="cls-3" d="M29.11,108.18c-2.73.67-3.27.31-4.06-2.77-.61-2.36-1.14-4-2.18-5-1.24-1.08-1.33-1.71-1.34-2.47-.26,0-.4.18-.58.78-.39,1.36-.9,1.41-.92,2.38a2.82,2.82,0,0,0,1.37,2.3,4.48,4.48,0,0,1,2.08,2.28c.66,1.36.53,2.87,1,4.13,1.9,1.48,3.94,2.44,7,1,.59-1.55,1.08-2.26-2.16-4C29.89,107.51,30.15,107.92,29.11,108.18Z"/><path class="cls-3" d="M12.81,102.26a6.21,6.21,0,0,0-.65,3.43c.15,1.89.56,1.5.43,4-.07,1.55-.82,3.52,0,4.7,1.41,1.41,5.15,1.22,5.93.47a4.1,4.1,0,0,0,.27-1.92c-.09-.52-.95-1.08-1.08-1.59s-.24-.93-.38-1.63c-.46-2.25-1-7.5-1-7.5Z"/><path class="cls-4" d="M15.71,112.2a5.13,5.13,0,0,1-1.71-.28,1.29,1.29,0,0,1-.52-1c-.18-1.19.22-2.65-.31-4.3a8.3,8.3,0,0,1-.36-4.4,24.21,24.21,0,0,0,0-4.46l3.63-.08s-.15,3-.13,4.52a74.93,74.93,0,0,0,.63,8c.16.8.3,1.11.2,1.44C17.19,111.67,16.89,112.14,15.71,112.2Z"/><path class="cls-5" d="M21.63,1c-.81-1.31-7-2.17-9.08,3.1-.77,2-.65,7.1-1.3,10.31s-2.18,5-2.73,7.63.35,7,6.62,7.74,11.1-1.43,12.58-3.43,1.51-6.25,0-8.53S25,13.67,25,10.69Z"/><path class="cls-4" d="M52.85,36.09a20.17,20.17,0,0,0-2.73.69,9,9,0,0,1-2.61.79c-1,.13-3.95-.84-6.55-2.15a28.55,28.55,0,0,1-7.56-6,66.57,66.57,0,0,1-6.48-9.8c-1.08-2.12-2.47-2.46-3.79-2.3-1.55.18-2.22,1.1-.63,3.95a61.45,61.45,0,0,0,7.92,11.16,29.19,29.19,0,0,0,7.89,5.89,36.8,36.8,0,0,0,8.15,3c.82.2,1.38.56,2.89,1.13a10,10,0,0,0,4.72.66c1.34-.23,1.78-.52,1.86-.81s-.21-.56-.83-.53a8.18,8.18,0,0,1-2.93-.16s1.36,0,2.17-.07A8.13,8.13,0,0,0,56.46,41c.66-.26.9-1.27.27-1.26s-1.1.2-2.31.3A8,8,0,0,1,52.5,40a16.1,16.1,0,0,0,2.37-.51,3.45,3.45,0,0,0,1.66-1c.23-.25.18-.87-.59-.75a12.62,12.62,0,0,1-2.89.56c-1,0-1.69-.13-1.56-.28s.71-.11,1.48-.51,1.22-1.19,1-1.58S53.66,35.81,52.85,36.09Z"/><path class="cls-5" d="M21.54,1.06s2.22-1.9,4.88.81C28.11,3.61,28,7,27.66,8.44s-1.75,3.26-2.92,3.37S21.54,1.06,21.54,1.06Z"/><path class="cls-4" d="M10.4,47.39c-1.28,5.56.46,14.34.75,18.89s.71,9.85.71,9.85a35.18,35.18,0,0,0-1.29,8.51C10.65,88.58,13,99.83,13,99.83a3.12,3.12,0,0,0,3.36,0s.55-9.74,1.07-14.26c.55-4.71.72-8.14,1.2-10.9.59-3.43,1.95-21.76,1.95-21.76l.15,2.77,1.67,18.08a13.56,13.56,0,0,0-1.19,4.7c0,2.88.62,16.39.62,16.39a3.29,3.29,0,0,0,3.63,0s2.84-18.54,3.24-20.72c.37-2,1.21-22.86-.44-27.71Z"/><path class="cls-4" d="M15.74,12.85s.3,5.22.21,5.6-2,.76-2.6,1.21,2.84,5.75,4.56,6.53S25,25,25.33,22.32c.34-2.44-1.52-4.34-2.24-5a13.44,13.44,0,0,0-1.47,0l-.16-2.53C19.13,14,15.74,12.85,15.74,12.85Z"/><path class="cls-6" d="M15,19c-1.47.22-3.14,1-3.37,1.81a17.3,17.3,0,0,0,.42,8.71,56,56,0,0,0,3.48,7.08A14.09,14.09,0,0,0,26.22,35.1a33.55,33.55,0,0,0,.53-4.66c4.72-4.11.69-9.19-3.31-13.14a8.66,8.66,0,0,0-1.44,0s2.36,6.05,1.09,6.61C21.23,24.73,16.72,19.91,15,19Z"/><path class="cls-7" d="M21.59,16.8l-.13-2.05-1.66-.53-4.06-1.37s0,.94.08,1.64c0,0,.17,1.78,3.12,3.16C19.46,17.9,21.42,18.08,21.59,16.8Z"/><path class="cls-4" d="M25.48,6.38h0C25,3,22.53.5,19.08.7a6.64,6.64,0,0,0-3.34,12.15,6.49,6.49,0,0,0,.53,1.46c1.23,1.43,4.48,2.34,5.55,2.35s1.73-.86,2.6-2.3C26.23,11.36,25.77,8,25.48,6.38Z"/><path class="cls-5" d="M25.23,4.3A6.36,6.36,0,0,0,18,.77a6.38,6.38,0,0,0-4.93,4.66,6.64,6.64,0,0,0,2.67,7.42c-.08-.23-1.84-2.83,0-3.41,0,.25.07,1.18.16,1.76,0,0,.88.06.85-1,0-.29-.06-.79-.06-1a3.26,3.26,0,0,1,.44-2,3.82,3.82,0,0,0,.41-1A3.13,3.13,0,0,1,19.4,4c.88-.29,2.09-.22,3.41,1.25C24.14,3.15,24.79,3.85,25.23,4.3Z"/><path class="cls-4" d="M15.74,12.85s-.16.33-.81.37c-1.22.06-2.64-2.19-1.67-3.72a1.58,1.58,0,0,1,2.44-.06Z"/><path class="cls-6" d="M15.19,35.88c.36.68.43,1.65-.76,3.38s-3.59,5.25-4,8.13a9.44,9.44,0,0,0,6.45,3.73c5.93.92,10.36-1.7,11.75-3.23a39.66,39.66,0,0,0-1.14-7,48.88,48.88,0,0,1-1.24-5.8C26,33,15.19,35.88,15.19,35.88Z"/><path class="cls-8" d="M14.92,38.07a42.83,42.83,0,0,1-2.5,3.87c-1.22,1.69-3.59,5.4-3,11.89.38,4.23,2.46,22.3,2.46,22.3a32.52,32.52,0,0,0-1.39,7c-.33,3.86,2.36,16.83,2.36,16.83a2.86,2.86,0,0,0,1.94.57,2,2,0,0,0,1.71-.7l.73-11c.26-3.75.93-9.71,1.13-11.2s.67-4.09.89-7S20.56,52.9,20.56,52.9l.15,2.77s.14,4.5.79,10.06.88,8,.88,8a11.76,11.76,0,0,0-1.27,3.59c-.14,1.52.7,17.5.7,17.5a2.68,2.68,0,0,0,2,1c1.49.16,1.86-.28,1.86-.28S28,78.86,28.31,77.16a52.68,52.68,0,0,0,.84-7.93A169.72,169.72,0,0,0,28.82,48c-.54-4.23-2.1-10.38-2.1-10.38A12.5,12.5,0,0,1,22,38.76,38.74,38.74,0,0,1,14.92,38.07Z"/><path class="cls-9" d="M26.75,47.89a9.75,9.75,0,0,1-2.28,2.92,10.1,10.1,0,0,1-3.91,2.09l.15,2.77s.14,4.5.79,10.06c.36,3,.58,5.15.72,6.44h0L22,54A8.4,8.4,0,0,0,26.75,47.89Z"/><path class="cls-10" d="M15.41,36.53a21.55,21.55,0,0,0,6.54.89c3.05-.28,4-1.11,4.36-1.67a5.35,5.35,0,0,1,.41,1.84c-1.32,1.54-3,1.89-5.45,1.89a15.77,15.77,0,0,1-6.35-1.41A7.75,7.75,0,0,0,15.41,36.53Z"/><path class="cls-4" d="M16.41,55.54a20.8,20.8,0,0,0-2.16-1.81,8.69,8.69,0,0,1-2.18-1.65c-.69-.72-1.64-3.68-2.1-6.56a28.48,28.48,0,0,1,.42-9.65,66.5,66.5,0,0,1,4.13-11c1.07-2.11.74-3.58-.37-4.42s-2.44-.52-3.57,1.82a59,59,0,0,0-4.37,13,28.79,28.79,0,0,0-.13,9.85A36.08,36.08,0,0,0,8.47,53.4c.32.79.36,1.44.78,3a10,10,0,0,0,2.25,4.21c1,1,1.46,1.14,1.74,1s.33-.5-.06-1a8.22,8.22,0,0,1-1.6-2.47s.81,1.1,1.34,1.72a8.1,8.1,0,0,0,1.64,1.43c.59.38,1.55,0,1.17-.52s-.81-.77-1.59-1.7a7.81,7.81,0,0,1-1.07-1.59,15.44,15.44,0,0,0,1.81,1.61,3.4,3.4,0,0,0,1.75.78c.34,0,.82-.37.26-.92a12.11,12.11,0,0,1-2.14-2c-.59-.8-.89-1.44-.7-1.42s.51.51,1.29.89,1.68.29,1.85-.14S17.11,56,16.41,55.54Z"/><g class="cls-11"><path class="cls-12" d="M123.19,28.53l26.36-15.21c.87-.5,1.57-.1,1.57.9V33.3A3.47,3.47,0,0,1,149.55,36L123.19,51.25c-.87.5-1.57.09-1.57-.91V31.26A3.5,3.5,0,0,1,123.19,28.53Z"/><path class="cls-13" d="M123.19,28.53l26.36-15.21c.87-.5,1.57-.1,1.57.9V33.3A3.47,3.47,0,0,1,149.55,36L123.19,51.25c-.87.5-1.57.09-1.57-.91V31.26A3.5,3.5,0,0,1,123.19,28.53Z"/><path class="cls-14" d="M124.86,31.39l10.72-6.19c.44-.25.79-.05.79.45v.05a1.72,1.72,0,0,1-.79,1.36l-10.72,6.19c-.43.25-.78,0-.78-.46v0A1.74,1.74,0,0,1,124.86,31.39Z"/><path class="cls-14" d="M138.64,23.43l9.24-5.33c.43-.25.78-.05.78.45v.05a1.74,1.74,0,0,1-.78,1.36l-9.24,5.33c-.44.25-.79.05-.79-.45v0A1.73,1.73,0,0,1,138.64,23.43Z"/><g class="cls-15"><path class="cls-16" d="M124.86,40.14,135.58,34c.44-.25.79-.05.79.45v0a1.73,1.73,0,0,1-.79,1.37L124.86,42c-.43.25-.78,0-.78-.46v0A1.74,1.74,0,0,1,124.86,40.14Z"/><path class="cls-16" d="M138.64,32.18l9.24-5.33c.43-.25.78-.05.78.45v.05a1.74,1.74,0,0,1-.78,1.36L138.64,34c-.44.25-.79.05-.79-.45v0A1.73,1.73,0,0,1,138.64,32.18Z"/></g><g class="cls-15"><path class="cls-16" d="M124.86,35.76l5.81-3.35c.43-.25.78,0,.78.45v0a1.74,1.74,0,0,1-.78,1.36l-5.81,3.35c-.43.25-.78.05-.78-.45v-.05A1.74,1.74,0,0,1,124.86,35.76Z"/><path class="cls-16" d="M133.27,30.91l4.93-2.86c.43-.25.78-.05.78.45v0a1.74,1.74,0,0,1-.78,1.37l-4.93,2.86c-.43.25-.78,0-.78-.46v0A1.74,1.74,0,0,1,133.27,30.91Z"/><path class="cls-16" d="M141,26.43l6.89-4c.43-.25.78,0,.78.46v0a1.74,1.74,0,0,1-.78,1.36l-6.89,4c-.44.25-.79.05-.79-.45v-.05A1.72,1.72,0,0,1,141,26.43Z"/></g><g class="cls-15"><path class="cls-16" d="M124.86,44.56l9.35-5.39c.44-.25.79-.05.79.46v0a1.72,1.72,0,0,1-.79,1.36l-9.35,5.39c-.43.25-.78,0-.78-.46v0A1.74,1.74,0,0,1,124.86,44.56Z"/><path class="cls-16" d="M136.82,37.67l4.92-2.86c.44-.25.79-.05.79.45v.05a1.72,1.72,0,0,1-.79,1.36l-4.92,2.86c-.43.25-.79,0-.79-.45v0A1.75,1.75,0,0,1,136.82,37.67Z"/><path class="cls-16" d="M144.53,33.19l3.35-1.92c.43-.25.78-.05.78.46v0a1.74,1.74,0,0,1-.78,1.36l-3.35,1.92c-.43.25-.78.05-.78-.45v-.05A1.74,1.74,0,0,1,144.53,33.19Z"/></g></g><path class="cls-17" d="M147,99.47h0v-6l-6.78,2.89L99.07,72.55a5.91,5.91,0,0,0-5.34,0L15.65,117.63,0,122.37v6H0v0H0a1.87,1.87,0,0,0,1.11,1.52l44.72,25.82a5.85,5.85,0,0,0,5.34,0L145.94,101A1.85,1.85,0,0,0,147,99.47Z"/><path class="cls-18" d="M0,122.37v6H0v0H0a1.87,1.87,0,0,0,1.11,1.52l44.72,25.82a5.41,5.41,0,0,0,2.67.64V128.85L22.67,113.58l-7,4Z"/><path class="cls-19" d="M140.5,93.6l-11-6.33a3.92,3.92,0,0,0-3.56,0l-.61.35a3.92,3.92,0,0,1-3.56,0L108.68,80a1.08,1.08,0,0,1,0-2.05l.61-.35a1.09,1.09,0,0,0,0-2.06l-11.1-6.4a3.92,3.92,0,0,0-3.56,0L6.45,120.12a1.08,1.08,0,0,0,0,2l42.32,24.42a3.92,3.92,0,0,0,3.56,0L140.5,95.65A1.08,1.08,0,0,0,140.5,93.6Z"/><polygon class="cls-20" points="127.76 86.24 142.32 94.6 140.32 98.31 127.76 91.06 127.76 86.24"/><polygon class="cls-20" points="96.41 72.97 96.41 68.15 111.07 76.61 106.9 79.02 96.41 72.97"/><path class="cls-21" d="M52.33,146.59l87.81-50.73-10.6-6.12a3.92,3.92,0,0,0-3.56,0l-.61.35a3.92,3.92,0,0,1-3.56,0l-13.13-7.58a1.08,1.08,0,0,1,0-2.05l.36-.21-.36-.21a1.08,1.08,0,0,1,0-2.05l.26-.15-10.75-6.2a4,4,0,0,0-3.56,0L6.81,122.38l42,24.21A3.92,3.92,0,0,0,52.33,146.59Z"/><path class="cls-22" d="M129.54,89.74a3.92,3.92,0,0,0-3.56,0l-.61.35a3.92,3.92,0,0,1-3.56,0l-13.13-7.58a1.08,1.08,0,0,1,0-2.05l.36-.21-.36-.21a1.08,1.08,0,0,1,0-2.05l.26-.15-10.75-6.2a3.69,3.69,0,0,0-1.78-.42s5.86,14.8.86,30.34c-4.67,14.5-31.87,37.18-42.81,43.8l85.68-49.5Z"/><path class="cls-20" d="M107.94,79v2.47a1.26,1.26,0,0,0,.74,1l13.13,7.58a3.6,3.6,0,0,0,1.88.43V87.35Z"/><path class="cls-23" d="M145.94,91.92,101.22,66.1a5.91,5.91,0,0,0-5.34,0L1.11,120.83c-1.48.85-1.48,2.23,0,3.08l44.72,25.82a5.91,5.91,0,0,0,5.34,0L145.94,95C147.42,94.15,147.42,92.78,145.94,91.92Zm-5.44,3.73L52.33,146.59a3.92,3.92,0,0,1-3.56,0L6.45,122.17a1.08,1.08,0,0,1,0-2L94.63,69.18a3.92,3.92,0,0,1,3.56,0l11.1,6.4a1.09,1.09,0,0,1,0,2.06l-.61.35a1.08,1.08,0,0,0,0,2.05l13.13,7.58a3.92,3.92,0,0,0,3.56,0l.61-.35a3.92,3.92,0,0,1,3.56,0l11,6.33A1.08,1.08,0,0,1,140.5,95.65Z"/><g class="cls-24"><polygon class="cls-25" points="37.33 102.28 44.96 97.87 40.87 97.87 33.23 102.28 37.33 102.28"/><polygon class="cls-25" points="66.06 85.68 81.33 76.86 77.26 76.86 61.98 85.68 66.06 85.68"/><path class="cls-25" d="M97.22,68.84a3,3,0,0,1,1,.34L103,72h8.34L106,68.84Z"/><path class="cls-25" d="M85.73,72H89.8l4.83-2.79a2.93,2.93,0,0,1,1-.34H91.14Z"/><path class="cls-25" d="M110,76.86a1.46,1.46,0,0,1-.7.78l-.61.35a1.08,1.08,0,0,0,0,2.05l9.76,5.64h16.69l-15.29-8.82Z"/><polygon class="cls-25" points="15.16 115.08 30.43 106.26 26.34 106.26 11.06 115.08 15.16 115.08"/><polygon class="cls-25" points="48.06 146.18 32.77 137.36 24.39 137.36 39.68 146.18 48.06 146.18"/><polygon class="cls-25" points="136.66 97.87 129.03 102.28 133.35 102.28 140.99 97.87 136.66 97.87"/><polygon class="cls-25" points="122.14 106.26 106.86 115.08 111.17 115.08 126.45 106.26 122.14 106.26"/><polygon class="cls-25" points="25.87 133.38 18.22 128.96 9.86 128.96 17.5 133.38 25.87 133.38"/><polygon class="cls-25" points="82.83 128.96 75.2 133.38 79.49 133.38 87.13 128.96 82.83 128.96"/><polygon class="cls-25" points="68.31 137.36 53.03 146.18 57.32 146.18 72.6 137.36 68.31 137.36"/></g><path class="cls-19" d="M114.94,78.85l6.37,3.67c.54.32.64.78.21,1a2,2,0,0,1-1.76-.12l-6.37-3.68c-.54-.31-.64-.77-.21-1A2,2,0,0,1,114.94,78.85Z"/><path class="cls-26" d="M20.14,138.14c0-.69,1.45-.41,3.24.63s3.24,2.42,3.24,3.11v1.25l-6.48-3.74Z"/><path class="cls-26" d="M28.62,143.89a.88.88,0,0,0,.41.71c.23.13.41,0,.41-.23a.9.9,0,0,0-.41-.71C28.8,143.53,28.62,143.63,28.62,143.89Z"/><path class="cls-26" d="M30.64,145.06a.92.92,0,0,0,.41.71c.23.13.41,0,.41-.24a.88.88,0,0,0-.41-.7C30.82,144.69,30.64,144.8,30.64,145.06Z"/><path class="cls-26" d="M32.66,146.23a.92.92,0,0,0,.41.71c.23.13.41,0,.41-.24a.9.9,0,0,0-.41-.71C32.85,145.86,32.66,146,32.66,146.23Z"/><path class="cls-26" d="M34.68,147.4a.91.91,0,0,0,.41.7c.23.14.41,0,.41-.23a.9.9,0,0,0-.41-.71C34.87,147,34.68,147.13,34.68,147.4Z"/><path class="cls-26" d="M36.71,148.56a.91.91,0,0,0,.4.71c.23.13.41,0,.41-.23a.88.88,0,0,0-.41-.71C36.89,148.2,36.71,148.3,36.71,148.56Z"/><path class="cls-26" d="M38.73,149.73a.9.9,0,0,0,.41.71c.22.13.4,0,.4-.24a.9.9,0,0,0-.41-.71C38.91,149.36,38.73,149.47,38.73,149.73Z"/><path class="cls-26" d="M40.75,150.9a.91.91,0,0,0,.41.71c.22.13.41,0,.41-.24a.92.92,0,0,0-.41-.71C40.93,150.53,40.75,150.63,40.75,150.9Z"/><path class="cls-26" d="M28.57,141.79a.9.9,0,0,0,.41.71c.22.13.41,0,.41-.24a.92.92,0,0,0-.41-.71C28.75,141.42,28.57,141.53,28.57,141.79Z"/><path class="cls-26" d="M30.59,143a.88.88,0,0,0,.41.71c.23.13.41,0,.41-.23a.92.92,0,0,0-.41-.71C30.77,142.59,30.59,142.69,30.59,143Z"/><path class="cls-26" d="M32.61,144.12a.9.9,0,0,0,.41.71c.23.13.41,0,.41-.24a.91.91,0,0,0-.41-.71C32.79,143.75,32.61,143.86,32.61,144.12Z"/><path class="cls-26" d="M34.63,145.29A.92.92,0,0,0,35,146c.23.13.41,0,.41-.24a.9.9,0,0,0-.41-.71C34.81,144.92,34.63,145,34.63,145.29Z"/><path class="cls-26" d="M36.65,146.45a.91.91,0,0,0,.41.71c.23.14.41,0,.41-.23a.9.9,0,0,0-.41-.71C36.84,146.09,36.65,146.19,36.65,146.45Z"/><path class="cls-26" d="M38.67,147.62a.92.92,0,0,0,.41.71c.23.13.41,0,.41-.24a.88.88,0,0,0-.41-.7C38.86,147.25,38.67,147.36,38.67,147.62Z"/><path class="cls-26" d="M40.69,148.79a.92.92,0,0,0,.41.71c.23.13.41,0,.41-.24a.9.9,0,0,0-.41-.71C40.88,148.42,40.69,148.53,40.69,148.79Z"/><path class="cls-26" d="M4.85,130.16a.88.88,0,0,0,.41.71c.23.13.41,0,.41-.23a.9.9,0,0,0-.41-.71C5,129.8,4.85,129.9,4.85,130.16Z"/><path class="cls-26" d="M6.87,131.33a.9.9,0,0,0,.41.71c.23.13.41,0,.41-.24a.91.91,0,0,0-.41-.71C7.05,131,6.87,131.07,6.87,131.33Z"/><path class="cls-26" d="M8.89,132.5a.92.92,0,0,0,.41.71c.23.13.41,0,.41-.24a.9.9,0,0,0-.41-.71C9.07,132.13,8.89,132.24,8.89,132.5Z"/><path class="cls-26" d="M10.91,133.67a.91.91,0,0,0,.41.7c.23.14.41,0,.41-.23a.9.9,0,0,0-.41-.71C11.1,133.3,10.91,133.4,10.91,133.67Z"/><path class="cls-26" d="M12.93,134.83a.92.92,0,0,0,.41.71c.23.13.41,0,.41-.24a.88.88,0,0,0-.41-.7C13.12,134.46,12.93,134.57,12.93,134.83Z"/><path class="cls-26" d="M15,136a1,1,0,0,0,.41.71c.23.13.41,0,.41-.24a.9.9,0,0,0-.41-.71C15.14,135.63,15,135.74,15,136Z"/><path class="cls-26" d="M17,137.17a.91.91,0,0,0,.41.71c.22.13.4,0,.4-.24a.9.9,0,0,0-.41-.71C17.16,136.8,17,136.9,17,137.17Z"/><path class="cls-26" d="M4.8,128.06a.9.9,0,0,0,.41.71c.22.13.41,0,.41-.24a.92.92,0,0,0-.41-.71C5,127.69,4.8,127.8,4.8,128.06Z"/><path class="cls-26" d="M6.82,129.22a.9.9,0,0,0,.41.71c.22.13.41,0,.41-.23a.92.92,0,0,0-.41-.71C7,128.86,6.82,129,6.82,129.22Z"/><path class="cls-26" d="M8.84,130.39a.9.9,0,0,0,.41.71c.22.13.41,0,.41-.24a.92.92,0,0,0-.41-.71C9,130,8.84,130.13,8.84,130.39Z"/><path class="cls-26" d="M10.86,131.56a.9.9,0,0,0,.41.71c.23.13.41,0,.41-.24a.9.9,0,0,0-.41-.71C11,131.19,10.86,131.3,10.86,131.56Z"/><path class="cls-26" d="M12.88,132.72a.91.91,0,0,0,.41.71c.23.13.41,0,.41-.23a.9.9,0,0,0-.41-.71C13.06,132.36,12.88,132.46,12.88,132.72Z"/><path class="cls-26" d="M14.9,133.89a.92.92,0,0,0,.41.71c.23.13.41,0,.41-.24a.91.91,0,0,0-.41-.71C15.09,133.52,14.9,133.63,14.9,133.89Z"/><path class="cls-26" d="M16.92,135.06a.92.92,0,0,0,.41.71c.23.13.41,0,.41-.24a.9.9,0,0,0-.41-.71C17.11,134.69,16.92,134.8,16.92,135.06Z"/><path class="cls-19" d="M122.27,83.94c-.42.24-.42.63,0,.86a1.65,1.65,0,0,0,1.5,0,.45.45,0,0,0,0-.86A1.65,1.65,0,0,0,122.27,83.94Z"/><g class="cls-27"><path class="cls-28" d="M91.6,62.49c0-4.61-3.26-6.5-7.26-4.19l-.07,0A17.67,17.67,0,0,0,76.43,70.9l-.32,4.6c-.17,2.54-2.61,5.92-5.44,7.56s-5.14.28-5.14-3V75.92c0-3.71-2.64-5.23-5.85-3.37h0a13.72,13.72,0,0,0-6.08,9.58l-.44,5.35a12.86,12.86,0,0,1-5.68,9l-.46.27c-2.85,1.64-5.46.31-5.79-3L38.91,70.88c-.46-4.59-4.11-6.46-8.1-4.15l-.08,0a16.13,16.13,0,0,0-7.26,12.58v47.81L91.6,87.83Z"/><path class="cls-29" d="M91.6,87.83V62.49c0-4.61-3.26-6.5-7.26-4.19l-.07,0A17.67,17.67,0,0,0,76.43,70.9l-.32,4.6c-.17,2.54-2.61,5.92-5.44,7.56s-5.14.28-5.14-3V75.92c0-3.71-2.64-5.23-5.85-3.37h0a13.72,13.72,0,0,0-6.08,9.58l-.44,5.35a12.86,12.86,0,0,1-5.68,9l-.46.27c-2.85,1.64-5.46.31-5.79-3L38.91,70.88c-.46-4.59-4.11-6.46-8.1-4.15l-.08,0a16.13,16.13,0,0,0-7.26,12.58v47.81"/></g><path class="cls-12" d="M95.12,85.7a12.74,12.74,0,0,1-5.68,9c-2.92,1.68-5.67.36-6.18-2.91,0,0-.34-2.13-.75-4.77s-2.73-3.63-5.16-2.22S72.54,90,72,93.22l-1,6.69c-.5,3.27-2.79,7-5.1,8.34s-4.54-.23-5-3.52L59,93.28c-.79-4.56-4.68-6.39-8.69-4.07l-.07,0a16.06,16.06,0,0,0-7.26,12.58V138.4l68.13-39.33V51.25c0-4.63-2.93-6.7-6.54-4.62s-6.85,7.51-7.22,12.12Z"/><path class="cls-29" d="M111.07,99.07V51.25c0-4.63-2.93-6.7-6.54-4.62s-6.85,7.51-7.22,12.12l-2.19,27a12.74,12.74,0,0,1-5.68,9c-2.92,1.68-5.67.36-6.18-2.91,0,0-.34-2.13-.75-4.77s-2.73-3.63-5.16-2.22S72.54,90,72,93.22l-1,6.69c-.5,3.27-2.79,7-5.1,8.34s-4.54-.23-5-3.52L59,93.28c-.79-4.56-4.68-6.39-8.69-4.07l-.07,0a16.06,16.06,0,0,0-7.26,12.58V138.4"/></g></g></g></svg>