<svg xmlns="http://www.w3.org/2000/svg" viewBox="0 0 61.71 118.33"><defs><style>.cls-1{isolation:isolate;}.cls-2{fill:#6b99d1;opacity:0.15;mix-blend-mode:multiply;}.cls-3{fill:#c8e2ff;}.cls-4{fill:#a5cbfa;}.cls-5{fill:#dceeff;}.cls-6{fill:#031f60;}.cls-7{fill:#1e3779;}.cls-8{fill:#344593;}.cls-9{fill:none;stroke:#fff;stroke-miterlimit:10;}.cls-10{fill:#41e5c9;}</style></defs><title>asset-33</title><g class="cls-1"><g id="Layer_2" data-name="Layer 2"><g id="Objects"><path class="cls-2" d="M28.31,83.89,1.55,99.34c-1.4.81-1.4,2.13,0,2.94l26.76,15.44a5.57,5.57,0,0,0,5.09,0l26.76-15.44c1.4-.81,1.4-2.13,0-2.94L33.4,83.89A5.63,5.63,0,0,0,28.31,83.89Z"/><path class="cls-3" d="M61.21,18V94.09a5.66,5.66,0,0,1-2.55,4.41L33.4,113.08a5.31,5.31,0,0,1-2.55.61,5.24,5.24,0,0,1-2.54-.61L3.05,98.5A5.66,5.66,0,0,1,.5,94.09V18Z"/><path class="cls-4" d="M30.85,18v95.67a5.24,5.24,0,0,1-2.54-.61L3.05,98.5A5.66,5.66,0,0,1,.5,94.09V18Z"/><path class="cls-5" d="M28.31,1.11,1.55,16.56c-1.4.81-1.4,2.12,0,2.94L28.31,34.94a5.63,5.63,0,0,0,5.09,0L60.16,19.5c1.4-.82,1.4-2.13,0-2.94L33.4,1.11A5.63,5.63,0,0,0,28.31,1.11Z"/><path class="cls-6" d="M34.84,40.69v65c0,1.08.76,1.52,1.69,1l.3-.18L57,94.85a3.46,3.46,0,0,0,1.2-1.28l-1.86-1.25L35.35,39A3.35,3.35,0,0,0,34.84,40.69Z"/><path class="cls-7" d="M58.72,27.22v-.33c0-1.08-.75-1.52-1.69-1l-.16.09L36.54,37.74A3.33,3.33,0,0,0,35.35,39L56.28,92.46l1.95,1.11a3.27,3.27,0,0,0,.49-1.65Z"/><path class="cls-8" d="M56.87,90.65a3.78,3.78,0,0,1-1.7,2.94L35,105.26l-.12.08V40.69a3.85,3.85,0,0,1,1.7-2.95L56.86,26Z"/><path class="cls-6" d="M26.87,40.69v65c0,1.08-.77,1.52-1.7,1l-.29-.18L4.68,94.85a3.48,3.48,0,0,1-1.21-1.28l1.86-1.25L26.36,39A3.45,3.45,0,0,1,26.87,40.69Z"/><path class="cls-7" d="M3,27.22v-.33c0-1.08.76-1.52,1.7-1l.15.09L25.16,37.74A3.42,3.42,0,0,1,26.36,39L5.42,92.46,3.47,93.57A3.37,3.37,0,0,1,3,91.92Z"/><path class="cls-8" d="M4.83,90.65a3.36,3.36,0,0,0,.5,1.67,3.5,3.5,0,0,0,1.2,1.27l20.21,11.67.13.08V40.69a3.82,3.82,0,0,0-1.71-2.95L4.84,26Z"/><path class="cls-5" d="M28.31,1.11,1.55,16.56c-1.4.81-1.4,2.12,0,2.94L28.31,34.94a5.63,5.63,0,0,0,5.09,0L60.16,19.5c1.4-.82,1.4-2.13,0-2.94L33.4,1.11A5.63,5.63,0,0,0,28.31,1.11Z"/><path class="cls-9" d="M28.31,1.11,1.55,16.56c-1.4.81-1.4,2.12,0,2.94L28.31,34.94a5.63,5.63,0,0,0,5.09,0L60.16,19.5c1.4-.82,1.4-2.13,0-2.94L33.4,1.11A5.63,5.63,0,0,0,28.31,1.11Z"/><path class="cls-3" d="M18.75,56.55l1.44-.84a1.16,1.16,0,0,0,.53-.91V47.43a2.54,2.54,0,0,0-.37-1.24L14,49.84Z"/><path class="cls-4" d="M19.45,45.24,10,39.79a.91.91,0,0,0-.85,0l-1.55.89L14,49.84l6.32-3.65A2.58,2.58,0,0,0,19.45,45.24Z"/><path class="cls-5" d="M8.51,40.77l9.35,5.4a2.78,2.78,0,0,1,1.26,2.19v7.36c0,.81-.56,1.14-1.26.74l-9.35-5.4a2.82,2.82,0,0,1-1.27-2.2V41.5C7.24,40.69,7.81,40.37,8.51,40.77Z"/><path class="cls-3" d="M40.62,52.83,39,51.88a1.16,1.16,0,0,1-.53-.91V48.16a2.72,2.72,0,0,1,.37-1.25l4.88,2.8Z"/><path class="cls-4" d="M39.72,46l11.94-6.91a.91.91,0,0,1,.85,0l1.74,1L43.7,49.71l-4.88-2.8A2.55,2.55,0,0,1,39.72,46Z"/><path class="cls-5" d="M53.35,40.15,41.51,47a2.82,2.82,0,0,0-1.27,2.2V52c0,.81.57,1.14,1.27.73l11.84-6.85a2.79,2.79,0,0,0,1.27-2.19V40.88C54.62,40.08,54.05,39.75,53.35,40.15Z"/><path class="cls-3" d="M40.62,65.87,39,64.93a1.18,1.18,0,0,1-.53-.92V61.2A2.65,2.65,0,0,1,38.82,60l4.88,2.79Z"/><path class="cls-4" d="M39.72,59,51.66,52.1a1,1,0,0,1,.85,0l1.74,1L43.7,62.75,38.82,60A2.58,2.58,0,0,1,39.72,59Z"/><path class="cls-5" d="M53.35,53.2,41.51,60.05a2.79,2.79,0,0,0-1.27,2.19v2.81c0,.8.57,1.13,1.27.73l11.84-6.85a2.82,2.82,0,0,0,1.27-2.2v-2.8C54.62,53.12,54.05,52.79,53.35,53.2Z"/><path class="cls-3" d="M40.62,78.92,39,78a1.18,1.18,0,0,1-.53-.92v-2.8A2.69,2.69,0,0,1,38.82,73l4.88,2.8Z"/><path class="cls-4" d="M39.72,72.05l11.94-6.9a.91.91,0,0,1,.85,0l1.74,1L43.7,75.8,38.82,73A2.58,2.58,0,0,1,39.72,72.05Z"/><path class="cls-5" d="M53.35,66.24,41.51,73.09a2.79,2.79,0,0,0-1.27,2.19v2.81c0,.81.57,1.13,1.27.73L53.35,72a2.79,2.79,0,0,0,1.27-2.19V67C54.62,66.16,54.05,65.84,53.35,66.24Z"/><path class="cls-3" d="M40.62,92,39,91a1.16,1.16,0,0,1-.53-.91V87.29A2.72,2.72,0,0,1,38.82,86l4.88,2.8Z"/><path class="cls-4" d="M39.72,85.1l11.94-6.91a.91.91,0,0,1,.85,0l1.74,1L43.7,88.84,38.82,86A2.55,2.55,0,0,1,39.72,85.1Z"/><path class="cls-5" d="M53.35,79.28,41.51,86.13a2.82,2.82,0,0,0-1.27,2.2v2.8c0,.81.57,1.14,1.27.73L53.35,85a2.79,2.79,0,0,0,1.27-2.19V80C54.62,79.21,54.05,78.88,53.35,79.28Z"/><path class="cls-10" d="M41.92,48.62l1.56-.9c.12-.07.22,0,.22.12v1.81a.49.49,0,0,1-.22.37l-1.56.9c-.12.07-.21,0-.21-.12V49A.46.46,0,0,1,41.92,48.62Z"/><path class="cls-10" d="M41.92,61.67l1.56-.91c.12-.07.22,0,.22.12v1.81a.47.47,0,0,1-.22.37l-1.56.9c-.12.07-.21,0-.21-.12V62A.44.44,0,0,1,41.92,61.67Z"/><path class="cls-10" d="M41.92,74.71l1.56-.91c.12-.06.22,0,.22.13v1.81a.45.45,0,0,1-.22.36L41.92,77c-.12.06-.21,0-.21-.13v-1.8A.46.46,0,0,1,41.92,74.71Z"/><path class="cls-10" d="M41.92,87.75l1.56-.9c.12-.07.22,0,.22.12v1.81a.49.49,0,0,1-.22.37l-1.56.9c-.12.07-.21,0-.21-.12V88.12A.46.46,0,0,1,41.92,87.75Z"/></g></g></g></svg>