<svg xmlns="http://www.w3.org/2000/svg" xmlns:xlink="http://www.w3.org/1999/xlink" viewBox="0 0 126.84 205.93"><defs><style>.cls-1{isolation:isolate;}.cls-2{fill:#6b99d1;opacity:0.15;mix-blend-mode:multiply;}.cls-3{fill:#2d2979;}.cls-4{fill:#ffa8a7;}.cls-5{fill:#f5fbfb;}.cls-6{fill:#f28f8f;}.cls-7{fill:#3a2c6d;}.cls-8{fill:#7fa8e6;}.cls-9{fill:#dceeff;}.cls-10{fill:#a5cbfa;}.cls-11{fill:#c8e2ff;}.cls-12{fill:#fff;}.cls-13{fill:#344593;}.cls-14{fill:#1e3779;}.cls-15{fill:#031f60;}.cls-16{fill:#e73555;}.cls-17{fill:#0662dd;}.cls-18{fill:none;stroke:#344593;stroke-miterlimit:10;}.cls-19{fill:url(#Degradado_sin_nombre_3);}.cls-20{fill:url(#Degradado_sin_nombre_3-2);}.cls-21{fill:url(#Degradado_sin_nombre_3-3);}.cls-22,.cls-23,.cls-24{fill:#57f7e0;}.cls-22{opacity:0.3;}.cls-23{opacity:0.2;}.cls-24{opacity:0.5;}</style><linearGradient id="Degradado_sin_nombre_3" x1="60.62" y1="119.67" x2="69.33" y2="128.38" gradientUnits="userSpaceOnUse"><stop offset="0" stop-color="#91f1e6"/><stop offset="1" stop-color="#0662dd"/></linearGradient><linearGradient id="Degradado_sin_nombre_3-2" x1="87.79" y1="98.65" x2="92.49" y2="103.34" xlink:href="#Degradado_sin_nombre_3"/><linearGradient id="Degradado_sin_nombre_3-3" x1="92.63" y1="125.83" x2="98.51" y2="131.71" xlink:href="#Degradado_sin_nombre_3"/></defs><title>asset-37</title><g class="cls-1"><g id="Layer_2" data-name="Layer 2"><g id="Objects"><path class="cls-2" d="M5.82,153,15,147.73c6.19-3.58,14.75-4.44,19.11-1.92s2.87,7.46-3.33,11l-9.13,5.28c-6.2,3.57-14.75,4.43-19.11,1.91S-.37,156.58,5.82,153Z"/><path class="cls-2" d="M125.78,178.38,79.13,205.32a5.63,5.63,0,0,1-5.1,0L27.37,178.38a1.79,1.79,0,0,1-1.06-1.47,1.52,1.52,0,0,1,.56-1.11,2.79,2.79,0,0,1,.5-.36L74,148.51a5.59,5.59,0,0,1,5.1,0l46.65,26.93C127.19,176.25,127.19,177.57,125.78,178.38Z"/><path class="cls-3" d="M13.74,144.64a4.38,4.38,0,0,0,.43,3,13.69,13.69,0,0,1,.46,4.31.86.86,0,0,0,1.11-.06s-.09-4.06,1-3.73Z"/><path class="cls-4" d="M22.9,151c-1.12-1.61-2.63-6.89-3-8.11a8.36,8.36,0,0,1-.23-2.39c0-1.79,2.18-6,2.18-6l-4.73-.83L16,140.34a6.5,6.5,0,0,1-.72,1.93,18,18,0,0,0-1.12,2.39,1.94,1.94,0,0,0,.64,2.56,15.85,15.85,0,0,1,2.77,2.56c.8,1,.74,2.32,2,3.5s3.75.28,4.22-.12C24.52,152.59,24.3,152.09,22.9,151Z"/><path class="cls-3" d="M22.72,152.34c-2.74.66-3.28.3-4.06-2.78-.6-2.36-1.13-4.05-2.16-5a3.31,3.31,0,0,1-1.37-2.74c-.27,0-.41.3-.59.9-.4,1.36-.87,1.54-.89,2.51A2.85,2.85,0,0,0,15,147.58a4.5,4.5,0,0,1,2.08,2.29c.65,1.36.52,2.86,1,4.13,1.89,1.48,3.93,2.45,7,1,.58-1.55,1.08-2.26-2.15-4C23.49,151.67,23.75,152.09,22.72,152.34Z"/><path class="cls-3" d="M12.3,148.31a6.15,6.15,0,0,0-.66,3.43c.15,1.89.56,1.5.42,4-.08,1.56-.83,3.53,0,4.71,1.41,1.42,5.15,1.24,5.93.49a4.24,4.24,0,0,0,.28-1.92c-.09-.52-.94-1.08-1.08-1.6s-.24-.92-.38-1.63c-.44-2.25-.94-7.5-.94-7.5Z"/><path class="cls-4" d="M15.17,158.27a5.21,5.21,0,0,1-1.7-.29,1.26,1.26,0,0,1-.52-1c-.18-1.19.22-2.65-.3-4.3a8.23,8.23,0,0,1-.35-4.41,23.9,23.9,0,0,0,.07-4.45l3.63-.07s-.17,3-.15,4.52a72.34,72.34,0,0,0,.61,8c.16.8.29,1.11.2,1.44C16.66,157.74,16.35,158.21,15.17,158.27Z"/><path class="cls-4" d="M40.88,94.93a23.05,23.05,0,0,0-2.71-.76,9.15,9.15,0,0,1-2.67-.62c-.92-.38-3-2.69-4.6-5.14a28.28,28.28,0,0,1-3.54-9,66.68,66.68,0,0,1-.72-11.73c.11-2.37-.92-3.37-2.14-3.89C23.06,63.2,22,63.66,22,66.92a60.82,60.82,0,0,0,1.3,13.62,28.76,28.76,0,0,0,3.89,9,36.12,36.12,0,0,0,5.59,6.63c.6.59.91,1.17,1.93,2.43a10,10,0,0,0,3.77,2.92c1.27.47,1.8.44,2,.23s.1-.59-.45-.87a8.13,8.13,0,0,1-2.47-1.61s1.18.68,1.93,1a7.68,7.68,0,0,0,2.07.65c.7.1,1.41-.66.86-.95s-1.06-.38-2.15-.91a8,8,0,0,1-1.63-1,15.16,15.16,0,0,0,2.32.74,3.34,3.34,0,0,0,1.92,0c.32-.1.59-.66-.14-.94a12.41,12.41,0,0,1-2.78-1c-.86-.49-1.4-1-1.21-1s.67.26,1.53.29,1.65-.42,1.63-.88S41.72,95.1,40.88,94.93Z"/><path class="cls-4" d="M10.07,93.67c-1.29,5.55.42,14.34.7,18.89s.68,9.86.68,9.86a35.28,35.28,0,0,0-1.33,8.5c.07,3.94,2.31,13.53,2.31,15.82,1.36.27,2.65.24,3.46-.54,0,0,.54-9.83,1.08-14.34.56-4.71.74-8.14,1.23-10.9.6-3.43,1.62-19.13,1.62-19.13l.54.15,1.24,15.44a22.66,22.66,0,0,0-2.42,5.52c-.72,2.79-3,16-3,16s1.66,1.92,3.67.71c.66-2.06,7.62-18.24,8.56-19.77,1.07-1.74,1.18-22.31-.46-27.16Z"/><path class="cls-4" d="M15.51,59.15s.3,5.21.2,5.6-2.05.74-2.6,1.2,2.82,5.76,4.54,6.54,7.05-1.19,7.43-3.84c.35-2.44-1.51-4.35-2.23-5a11.27,11.27,0,0,0-1.47,0l-.15-2.53C18.9,60.32,15.51,59.15,15.51,59.15Z"/><path class="cls-5" d="M14.78,65.25c-1.47.22-3.14,1-3.38,1.8a17.35,17.35,0,0,0,.4,8.71,54.18,54.18,0,0,0,3.46,7.09,14,14,0,0,0,10.67-1.42,33.89,33.89,0,0,0,.55-4.66c4.73-4.1.71-9.19-3.27-13.15a7.83,7.83,0,0,0-1.45,0A9.77,9.77,0,0,1,24,66.55a2.69,2.69,0,0,1-1.12,3.67c-1.85.82-3.21.32-4.78-1.37C17,67.7,16.48,66.21,14.78,65.25Z"/><path class="cls-6" d="M21.35,63.12l-.12-2-1.66-.55-4.06-1.37s.05.94.08,1.63c0,0,.17,1.79,3.11,3.18C19.22,64.2,21.19,64.39,21.35,63.12Z"/><path class="cls-4" d="M25.28,52.71h0c-.51-3.35-2.93-5.89-6.39-5.7a6.66,6.66,0,0,0-6.28,7,6.59,6.59,0,0,0,2.9,5.11A7,7,0,0,0,16,60.61C17.27,62,20.51,63,21.59,63s1.73-.85,2.6-2.28A11.44,11.44,0,0,0,25.28,52.71Z"/><path class="cls-7" d="M24.78,50a6.6,6.6,0,0,0-6.91-2.87,6.65,6.65,0,0,0-2.36,12c-.07-.23-1.82-2.84,0-3.41a2.18,2.18,0,0,1,.37,1.36s.89-.08.69-1.12c-.06-.29-.11-.56-.16-.8a3.07,3.07,0,0,1,.52-2.31,2.69,2.69,0,0,0,.47-2.18,9,9,0,0,0,5.06.39A4.61,4.61,0,0,0,24.78,50Z"/><path class="cls-7" d="M15.47,45.84c1.18.94.75,2.43-.39,3.86S12.55,52,11.36,51a3.06,3.06,0,0,1-.1-4.29A3.06,3.06,0,0,1,15.47,45.84Z"/><path class="cls-7" d="M17.38,50.69a10.06,10.06,0,0,1,.46,4.2,13.53,13.53,0,0,0,3.81.29c1.89-.16,3.65-.36,4.8-1.75.43-1-.5-6.55-5.46-6.2Z"/><path class="cls-4" d="M15.51,59.15s-.16.33-.81.36c-1.21.06-2.63-2.19-1.65-3.72a1.58,1.58,0,0,1,2.44,0Z"/><path class="cls-5" d="M14.9,82.17c.36.68.41,1.42-.78,3.15s-3.6,5.47-4,8.35a9.41,9.41,0,0,0,6.44,3.74c5.93,1,10.36-1.66,11.76-3.19a39.67,39.67,0,0,0-1.11-7,47.1,47.1,0,0,1-1.23-5.8C25.68,79.31,14.9,82.17,14.9,82.17Z"/><path class="cls-8" d="M14.6,84.55c-.77,1.2-3.63,4.69-4.53,7.74s-1,5-.23,14,1.57,15.59,1.57,15.59a5.71,5.71,0,0,0,4.26,2.23c3.15.39,10.55-1.44,13.49-5.77,0,0,.35-7.37.21-13.87s-1.78-17.62-3.24-21.75c0,0-.58,2.14-4.91,3.15C17.25,86.83,14.8,85.62,14.6,84.55Z"/><path class="cls-4" d="M16,101.83A20.8,20.8,0,0,0,13.87,100a9.1,9.1,0,0,1-2.17-1.66c-.69-.72-1.63-3.69-2.08-6.57a28.37,28.37,0,0,1,.45-9.65,66.68,66.68,0,0,1,4.16-11c1.08-2.12.76-3.59-.35-4.42s-2.44-.54-3.58,1.8a58.78,58.78,0,0,0-4.41,13,29.13,29.13,0,0,0-.16,9.85A36.25,36.25,0,0,0,8.1,99.67c.31.78.35,1.44.76,3a10.1,10.1,0,0,0,2.24,4.22c1,1,1.46,1.14,1.74,1s.33-.49-.05-1a8.22,8.22,0,0,1-1.6-2.47s.8,1.1,1.34,1.72a8.49,8.49,0,0,0,1.63,1.44c.59.38,1.56,0,1.18-.52s-.82-.78-1.6-1.7a8.21,8.21,0,0,1-1.06-1.6,15.08,15.08,0,0,0,1.81,1.62,3.37,3.37,0,0,0,1.75.78c.34,0,.82-.36.26-.92a12.11,12.11,0,0,1-2.14-2c-.58-.8-.88-1.45-.69-1.43s.51.51,1.28.9,1.68.29,1.85-.14S16.73,102.32,16,101.83Z"/><path class="cls-9" d="M125.78,171.91,79.13,198.84a5.7,5.7,0,0,1-5.09,0L27.37,171.91a1.84,1.84,0,0,1-1.06-1.48A1.81,1.81,0,0,1,27.37,169l7.41-4.27L74,142a5.66,5.66,0,0,1,5.1,0L125.78,169C127.19,169.77,127.19,171.09,125.78,171.91Z"/><path class="cls-10" d="M76.58,188.82v10.62a5.16,5.16,0,0,1-2.54-.6L27.37,171.91a1.84,1.84,0,0,1-1.06-1.48v-9.2a1.5,1.5,0,0,1,.56-1.1l7.91,4.56Z"/><path class="cls-11" d="M76.58,188.82v10.62a5.16,5.16,0,0,0,2.54-.6l46.66-26.93a1.82,1.82,0,0,0,1.06-1.48v-9.2a1.47,1.47,0,0,0-.56-1.1l-7.9,4.56Z"/><path class="cls-9" d="M125.78,162.7,79.13,189.64a5.63,5.63,0,0,1-5.1,0L27.37,162.7a1.79,1.79,0,0,1-1.06-1.47,1.5,1.5,0,0,1,.56-1.1,2.82,2.82,0,0,1,.5-.37L74,132.83a5.66,5.66,0,0,1,5.1,0l46.65,26.93C127.19,160.58,127.19,161.9,125.78,162.7Z"/><path class="cls-12" d="M76.58,133.22a4.31,4.31,0,0,1,2,.48l46.65,26.93c.41.23.56.47.56.61s-.15.36-.56.6L78.62,188.78a4.68,4.68,0,0,1-4.09,0L27.87,161.83c-.34-.19-.56-.42-.56-.6a.62.62,0,0,1,.24-.37,1.86,1.86,0,0,1,.32-.23L74.53,133.7a4.14,4.14,0,0,1,2-.48m0-1a5.15,5.15,0,0,0-2.55.61L27.37,159.76a2.82,2.82,0,0,0-.5.37,1.5,1.5,0,0,0-.56,1.1,1.79,1.79,0,0,0,1.06,1.47L74,189.64a5.63,5.63,0,0,0,5.1,0l46.65-26.94c1.41-.8,1.41-2.12,0-2.94L79.13,132.83a5.2,5.2,0,0,0-2.55-.61Z"/><path class="cls-13" d="M74.88,139.23l-36.41,21a1,1,0,0,0,0,2l36.41,21a3.75,3.75,0,0,0,3.39,0l36.42-21a1,1,0,0,0,0-2l-36.42-21A3.75,3.75,0,0,0,74.88,139.23Z"/><path class="cls-14" d="M114.69,160.26l-36.42-21a3.46,3.46,0,0,0-1.69-.4v1.72l37.81,21.84.3-.17A1,1,0,0,0,114.69,160.26Z"/><path class="cls-15" d="M76.58,138.83a3.47,3.47,0,0,0-1.7.4l-36.41,21a1,1,0,0,0,0,2l.29.17,37.82-21.84Z"/><polygon class="cls-16" points="80.56 195.18 83.4 193.53 83.4 190.25 80.56 191.89 80.56 195.18"/><polygon class="cls-17" points="84.54 193.07 87.38 191.43 87.38 188.14 84.54 189.79 84.54 193.07"/><polyline class="cls-18" points="64.88 123.93 90.09 100.95 95.51 128.7"/><path class="cls-19" d="M58.34,123.93a6.54,6.54,0,1,1,6.54,6.54A6.54,6.54,0,0,1,58.34,123.93Z"/><path class="cls-20" d="M86.56,101a3.53,3.53,0,1,1,3.53,3.52A3.53,3.53,0,0,1,86.56,101Z"/><path class="cls-21" d="M91.09,128.7a4.42,4.42,0,1,1,4.42,4.42A4.42,4.42,0,0,1,91.09,128.7Z"/><polyline class="cls-22" points="76.58 67.22 26.32 38.21 26.32 162.1 76.58 191.11"/><polyline class="cls-23" points="76.58 191.11 126.84 162.1 126.84 38.21 76.58 67.22"/><path class="cls-9" d="M125.78,39.68,79.13,66.61a5.09,5.09,0,0,1-2.55.61,5.16,5.16,0,0,1-2.54-.6L27.37,39.68a1.81,1.81,0,0,1-1.06-1.47,1.79,1.79,0,0,1,1.06-1.47l7.41-4.27L74,9.8a5.66,5.66,0,0,1,5.1,0l46.65,26.94C127.19,37.55,127.19,38.87,125.78,39.68Z"/><path class="cls-10" d="M76.58,56.6V67.22a5.16,5.16,0,0,1-2.54-.6L27.37,39.68a1.81,1.81,0,0,1-1.06-1.47V29a1.54,1.54,0,0,1,.56-1.11l7.91,4.57Z"/><path class="cls-11" d="M76.58,56.6V67.22a5.16,5.16,0,0,0,2.54-.6l46.66-26.94a1.79,1.79,0,0,0,1.06-1.47V29a1.5,1.5,0,0,0-.56-1.11l-7.9,4.57Z"/><path class="cls-9" d="M125.78,30.48,79.13,57.42a5.63,5.63,0,0,1-5.1,0L27.37,30.48A1.79,1.79,0,0,1,26.31,29a1.54,1.54,0,0,1,.56-1.11,3.39,3.39,0,0,1,.5-.36L74,.61a5.66,5.66,0,0,1,5.1,0l46.65,26.93C127.19,28.35,127.19,29.68,125.78,30.48Z"/><path class="cls-12" d="M76.58,1a4.2,4.2,0,0,1,2,.48l46.65,26.93c.41.23.56.47.56.6s-.15.37-.56.6l-46.66,27a4.16,4.16,0,0,1-2,.47,4.12,4.12,0,0,1-2-.48L27.87,29.61c-.34-.19-.56-.43-.56-.6a.59.59,0,0,1,.24-.37,1.44,1.44,0,0,1,.32-.23L74.53,1.47a4.25,4.25,0,0,1,2-.47m0-1A5.15,5.15,0,0,0,74,.61L27.37,27.54a3.39,3.39,0,0,0-.5.36A1.54,1.54,0,0,0,26.31,29a1.79,1.79,0,0,0,1.06,1.47L74,57.42a5.63,5.63,0,0,0,5.1,0l46.65-26.94c1.41-.8,1.41-2.13,0-2.94L79.13.61A5.2,5.2,0,0,0,76.58,0Z"/><path class="cls-13" d="M74.88,7,38.47,28c-.94.55-.94,1.42,0,2L74.88,51a3.75,3.75,0,0,0,3.39,0l36.42-21c.94-.54.94-1.41,0-2L78.27,7A3.75,3.75,0,0,0,74.88,7Z"/><path class="cls-14" d="M114.69,28,78.27,7a3.46,3.46,0,0,0-1.69-.4V8.33l37.81,21.83.3-.17C115.63,29.45,115.63,28.58,114.69,28Z"/><path class="cls-15" d="M76.58,6.61a3.47,3.47,0,0,0-1.7.4L38.47,28c-.94.55-.94,1.42,0,2l.29.17L76.58,8.33Z"/><path class="cls-22" d="M74,66.62a4.53,4.53,0,0,0,.59.28A4.53,4.53,0,0,1,74,66.62Z"/><path class="cls-22" d="M75.86,67.19h0Z"/><path class="cls-22" d="M76.53,183.64a4,4,0,0,1-1.65-.4A4,4,0,0,0,76.53,183.64Z"/><path class="cls-22" d="M74.86,67c.13,0,.26.09.39.12C75.12,67.06,75,67,74.86,67Z"/><path class="cls-22" d="M79.13,66.61a4.38,4.38,0,0,1-2.55.61h0V183.65a3.89,3.89,0,0,0,1.69-.41l36.12-20.85c.68-.37,1-.7,1-1.15V45.68Z"/><path class="cls-24" d="M76.58,183.65Z"/><path class="cls-24" d="M74.63,66.9l.23.07Z"/><path class="cls-24" d="M75.25,67.09l.61.1Z"/><path class="cls-24" d="M75.89,67.19a4.64,4.64,0,0,0,.65,0A4.64,4.64,0,0,1,75.89,67.19Z"/><path class="cls-24" d="M76.54,67.22a4.64,4.64,0,0,1-.65,0h0l-.61-.1c-.13,0-.26-.08-.39-.12l-.23-.07a4.53,4.53,0,0,1-.59-.28L37.76,45.68V161.24a1.22,1.22,0,0,0,.71,1l36.41,21a4,4,0,0,0,1.65.4h0V67.22Z"/></g></g></g></svg>