<svg xmlns="http://www.w3.org/2000/svg" viewBox="0 0 64.19 95.41"><defs><style>.cls-1{isolation:isolate;}.cls-2{fill:#6b99d1;opacity:0.15;}.cls-19,.cls-2{mix-blend-mode:multiply;}.cls-3{fill:#291d51;}.cls-4{fill:#ffa8a7;}.cls-5{fill:#2d2979;}.cls-6{fill:#aacaf9;}.cls-7{fill:#c4d9ff;}.cls-8{fill:#dceeff;}.cls-9{fill:#fff;}.cls-10{fill:#c8e2ff;}.cls-11{fill:#a5cbfa;}.cls-12{fill:#543354;}.cls-13{fill:#f28f8f;}.cls-14{fill:#b7d6fd;}.cls-15{fill:#eff6fe;}.cls-16{fill:#d2eaff;}.cls-17{fill:#97c3f4;}.cls-18{fill:#aad1fc;}.cls-19{fill:#94c3fb;opacity:0.2;}.cls-20{fill:#1e3779;}.cls-21{fill:#344593;}.cls-22{fill:#031f60;}.cls-23{fill:#2b3d89;}.cls-24{fill:#f5fbfb;}.cls-25{fill:#e4f2f2;}</style></defs><title>asset-28</title><g class="cls-1"><g id="Layer_2" data-name="Layer 2"><g id="Objects"><path class="cls-2" d="M5.82,64,15,58.68c6.19-3.58,14.75-4.44,19.11-1.92s2.87,7.46-3.33,11l-9.13,5.28C15.41,76.64,6.86,77.5,2.5,75S-.37,67.53,5.82,64Z"/><path class="cls-3" d="M19.15,68.32s.37.64,2.35-.19A5.26,5.26,0,0,0,24,66.32s-.52-4-1.74-3S19.15,68.32,19.15,68.32Z"/><path class="cls-4" d="M24.12,54.44c0,2.08-.09,3.67.7,4.79a4.31,4.31,0,0,1,.86,1.87,5.9,5.9,0,0,0-3.54,1.95c-1.2,1.62-1.13,3.23-2.24,3.5s-3-1-3-1A1.93,1.93,0,0,0,18.57,64a50.42,50.42,0,0,0,1.68-5.44c.05-.83,0-4,0-4Z"/><path class="cls-5" d="M24.14,59.77A4.48,4.48,0,0,0,21,62.16C20.51,63.34,19.64,65,19,65.38s-1.85-.17-2.85-.18-1.72.46-1.77,1.2l4.18,2c1,.45,1.78.47,2.54-1.54s1-3.13,1.64-1.77a19,19,0,0,1,.86,4.43A1,1,0,0,0,24.79,69a20.84,20.84,0,0,1,.15-2.67c.17-1.23,1.29-2.78,1.21-4.27S25.25,59.7,24.14,59.77Z"/><path class="cls-6" d="M22.74,34.51a18.59,18.59,0,0,0-.34,2.73c1.43,3.7,2,15,1.73,19.48a4.65,4.65,0,0,1-3.86-.4s-2.7-10.91-4.25-18A3.63,3.63,0,0,1,20.27,34Z"/><path class="cls-3" d="M8.91,72.17s.36.64,2.34-.19a5.16,5.16,0,0,0,2.53-1.82s-.51-4-1.74-3S8.91,72.17,8.91,72.17Z"/><path class="cls-4" d="M13.87,58.28c0,2.09-.08,3.68.71,4.79A4.25,4.25,0,0,1,15.43,65a5.9,5.9,0,0,0-3.54,2c-1.19,1.61-1.13,3.23-2.24,3.5s-2.95-1-2.95-1a1.92,1.92,0,0,0,1.63-1.51A53.56,53.56,0,0,0,10,62.44c0-.83,0-4,0-4Z"/><path class="cls-5" d="M13.9,63.61A4.54,4.54,0,0,0,10.78,66c-.52,1.19-1.38,2.85-2,3.23s-1.84-.17-2.85-.18-1.71.46-1.77,1.19l4.18,2c1,.46,1.78.48,2.54-1.53s1-3.13,1.65-1.77a19.26,19.26,0,0,1,.85,4.43,1,1,0,0,0,1.22-.51,19.92,19.92,0,0,1,.14-2.67c.17-1.24,1.29-2.79,1.21-4.27S15,63.54,13.9,63.61Z"/><path class="cls-7" d="M12.31,38.85l1.83,0a2.39,2.39,0,0,1,1.26,1.9C16.77,43,14.55,52,13.89,60.8a3.51,3.51,0,0,1-3.86.27s-1.4-14.62-1.73-18"/><path class="cls-2" d="M63.13,78.71,40.36,65.56a5.63,5.63,0,0,0-5.09,0L12.49,78.71c-1.4.81-1.4,2.13,0,2.94L35.27,94.8a5.63,5.63,0,0,0,5.09,0L63.13,81.65C64.54,80.84,64.54,79.52,63.13,78.71Z"/><path class="cls-8" d="M63.13,51.39,40.36,38.24a5.63,5.63,0,0,0-5.09,0L12.49,51.39c-1.4.81-1.4,2.13,0,2.94L35.27,67.48a5.63,5.63,0,0,0,5.09,0L63.13,54.33C64.54,53.52,64.54,52.2,63.13,51.39Z"/><path class="cls-9" d="M37.81,38.64a4.28,4.28,0,0,1,2,.47L62.63,52.26c.41.23.56.47.56.6s-.15.37-.56.61L39.86,66.62a4.28,4.28,0,0,1-2,.47,4.21,4.21,0,0,1-2-.47L13,53.47c-.41-.24-.55-.48-.55-.61s.14-.37.55-.6L35.77,39.11a4.21,4.21,0,0,1,2-.47m0-1a5.24,5.24,0,0,0-2.54.6L12.49,51.39c-1.4.81-1.4,2.13,0,2.94L35.27,67.48a5.13,5.13,0,0,0,2.54.61,5.2,5.2,0,0,0,2.55-.61L63.13,54.33c1.41-.81,1.41-2.13,0-2.94L40.36,38.24a5.31,5.31,0,0,0-2.55-.6Z"/><path class="cls-10" d="M64.19,75.85a1.84,1.84,0,0,1-1.06,1.47L40.36,90.46a5.14,5.14,0,0,1-2.55.61v-23a5.17,5.17,0,0,0,2.55-.61L63.13,54.33a1.77,1.77,0,0,0,1.06-1.47Z"/><path class="cls-11" d="M11.44,75.85a1.8,1.8,0,0,0,1.05,1.47L35.26,90.46a5.14,5.14,0,0,0,2.55.61v-23a5.2,5.2,0,0,1-2.55-.61L12.49,54.33a1.75,1.75,0,0,1-1.05-1.47Z"/><path class="cls-12" d="M30.92,8.45s-2.29-1.33-2.06-3.32,3.27-6.86,8.7-4.5C42.65,1.74,30.92,8.45,30.92,8.45Z"/><path class="cls-4" d="M42.74,17.82c-2.59-.16-2.39-.37-2.6-1.29-.07-.33-.22-2.62-.22-2.62a7.67,7.67,0,0,0,.65-1,6.56,6.56,0,0,0,3.15-5A6.67,6.67,0,0,0,37.78.67c-3.45-.36-6,2.06-6.66,5.38a14.77,14.77,0,0,0,.28,7.68c.58,1.52,1.11,2.59,2.49,2.53A7.71,7.71,0,0,0,35.24,16a11.35,11.35,0,0,1,.08,1.91c0,.66.08,1-1.23,1.8s2,2.45,4.11,2.28,4.53-1.45,5.19-2.83C44.12,17.64,44,17.9,42.74,17.82Z"/><path class="cls-13" d="M41.34,12.39l-2.24.12-2.44,0-.75-.87s-.16,2.81-.92,3.5a6.69,6.69,0,0,1-1.77,1.07,2,2,0,0,0,.67.09A7.71,7.71,0,0,0,35.24,16a11.35,11.35,0,0,1,.08,1.91c0,.66.08,1-1.23,1.8s2,2.45,4.11,2.28,4.53-1.45,5.19-2.83c.73-1.54.58-1.28-.65-1.36-2.59-.16-2.39-.37-2.6-1.29-.07-.33-.22-2.62-.22-2.62a7.67,7.67,0,0,0,.65-1A5.21,5.21,0,0,0,41.34,12.39Z"/><path class="cls-6" d="M22.74,34.51c2.4.88,17.79,7,17.79,7s-.64,11.5-4.1,9.65L20.64,42l-4.33-2.86C15.94,35.4,20.1,33.55,22.74,34.51Z"/><path class="cls-7" d="M8.3,43.12a4.38,4.38,0,0,1,5.61-4.93c2.4.88,16.8,7,16.8,7l16.83-1.69C49,51,43,54,38.57,56.15c-3,1.45-8.45,1.1-11.92-.76L11.71,45.15"/><path class="cls-10" d="M5.73,38.24h0a1.12,1.12,0,0,0,.56,1l10.55,6.09a1.12,1.12,0,0,0,1.12,0l14.79-8.53a1.14,1.14,0,0,0,.56-1v-.08Z"/><path class="cls-11" d="M19.8,43.78l11.26-6.47c.08-.05.14,0,.14,0a.26.26,0,0,1-.13.21L19.8,44c-.08,0-.14,0-.14,0A.29.29,0,0,1,19.8,43.78Z"/><path class="cls-11" d="M6.29,39.22l10.55,6.09a1.12,1.12,0,0,0,.56.15V38.24H5.73A1.12,1.12,0,0,0,6.29,39.22Z"/><path class="cls-14" d="M16.52,45.13l.32.18a1.12,1.12,0,0,0,1.12,0l.32-.18v-.72H16.52Z"/><path class="cls-15" d="M17,44.76a.8.8,0,0,0,.79,0l15.37-8.88c.19-.11.19-.29,0-.41L21.85,28.94,5.73,38.24Z"/><path class="cls-16" d="M7.6,38.41l-.4-.24c-.06,0-.06-.09,0-.13l14.31-8.27a.33.33,0,0,1,.24,0l.4.23a.08.08,0,0,1,0,.14L7.84,38.41A.33.33,0,0,1,7.6,38.41Z"/><polygon class="cls-17" points="26.85 38.25 26.78 38.29 21.85 41.13 19.14 39.57 19.07 39.53 24.07 36.64 26.85 38.25"/><polygon class="cls-16" points="26.78 38.29 21.85 41.13 19.14 39.57 24.07 36.73 26.78 38.29"/><path class="cls-18" d="M23.67,37c.7.38,1,2.29-2,4.06l.19.11,4.93-2.84-2.71-1.56Z"/><path class="cls-17" d="M27.81,33.54h0L13.59,41.73a.27.27,0,0,1-.23,0l-5-2.92h0a.08.08,0,0,1,0-.14l14.2-8.2a.25.25,0,0,1,.24,0l5.06,2.92A.08.08,0,0,1,27.81,33.54Z"/><polygon class="cls-17" points="8.31 38.68 8.32 38.68 8.3 38.69 8.31 38.68"/><path class="cls-18" d="M27.8,33.54,13.59,41.73a.27.27,0,0,1-.23,0l-5-2.92,14.19-8.2a.25.25,0,0,1,.24,0Z"/><path class="cls-11" d="M5.73,38.24h0l16.12-9.3V16.26L21.72,16l-.13-.07h0a1.1,1.1,0,0,0-1.11,0L5.73,24.43a1.09,1.09,0,0,0-.56,1V37.28C5.27,37.9,5.38,38.05,5.73,38.24Z"/><path class="cls-10" d="M7.21,26l14.64-9.28v-.42L21.72,16l-.13-.07a1.1,1.1,0,0,0-1.11,0L5.73,24.43a1.07,1.07,0,0,0-.43.44Z"/><path class="cls-14" d="M5.17,26l1,.55,1.19-1.61-1.23-.7-.39.23a1.11,1.11,0,0,0-.53.95Z"/><path class="cls-8" d="M21.48,16,6,24.91a.55.55,0,0,0-.27.47V38.24l16.12-9.3V16.19A.25.25,0,0,0,21.48,16Z"/><path class="cls-8" d="M21.48,16,6,24.91a.55.55,0,0,0-.27.47V38.24l16.12-9.3V16.19A.25.25,0,0,0,21.48,16Z"/><path class="cls-19" d="M21.48,16l-1.8,1-.56.32c0,3.18-.29,11.32-13.2,18.88v1.93l15.93-9.2V16.19A.25.25,0,0,0,21.48,16Z"/><polygon class="cls-19" points="5.73 38.24 5.73 37.78 21.85 28.48 21.85 28.94 5.73 38.24"/><polygon class="cls-20" points="21.43 28.26 21.43 16.64 21.23 16.75 21.23 28.16 21.43 28.26"/><polygon class="cls-21" points="21.23 16.75 21.23 28.16 6.25 36.8 6.25 25.41 21.23 16.75"/><polygon class="cls-22" points="21.43 28.26 6.25 37.02 6.25 36.8 21.23 28.16 21.43 28.26"/><path class="cls-23" d="M21.23,16.75,19.12,18C19,21.48,18.05,29,6.25,36v.78l15-8.63Z"/><path class="cls-24" d="M40.31,17.37c.47.6.6,1-.74,1.54a6,6,0,0,1-4.49-.07,42.25,42.25,0,0,0-3.77,2.27c-4.14,2.88-5.13,7.59-.95,9.31.25,1.88,1.46,4.37,1.54,5.47-.23,3.35-1.18,4.31-1.94,11.92,1.67,1.94,5.65,3,9.27,1.94,4.62-1.35,7.09-4.76,8.31-6.27-.67-4.66-3.4-7.67-3.37-9,.12-5.1,1.88-8.27,1.41-13-.27-2.7-1.26-3.77-2.81-4.13A12.48,12.48,0,0,0,40.31,17.37Z"/><path class="cls-4" d="M9.69,35a22.62,22.62,0,0,1,2.53,1.26,5.06,5.06,0,0,0,2.23,1c1.05.23,3.49,0,6.91-.5s5.38-1.95,6.46-3.54c2.37-3.5,2.14-7.59,3-10.69.64-2.18,2.43-2.65,3.42-1.76.77.69,1.68,3.51.87,7.65C34.53,31.63,32.68,36,30,38a16.58,16.58,0,0,1-6.2,2.66,58.9,58.9,0,0,1-8.78.82c-.84.05-1.46.29-3.05.56a10.12,10.12,0,0,1-4.76-.27c-1.27-.48-1.65-.85-1.67-1.15s.31-.51.91-.36a8.35,8.35,0,0,0,2.92.41s-1.34-.26-2.12-.5a7.78,7.78,0,0,1-2-.87c-.6-.38-.64-1.43,0-1.29s1,.41,2.22.74a8.37,8.37,0,0,0,1.9.3,15.34,15.34,0,0,1-2.23-1,3.28,3.28,0,0,1-1.44-1.27c-.18-.29,0-.89.72-.62A11.91,11.91,0,0,0,9.1,37.3c1,.19,1.68.2,1.58,0s-.68-.25-1.35-.79-1-1.41-.65-1.74S9,34.53,9.69,35Z"/><path class="cls-12" d="M41.3,13.18A7.23,7.23,0,0,0,43.72,8,6.67,6.67,0,0,0,37.78.67a5.51,5.51,0,0,0-6.06,3.56,1.06,1.06,0,0,0,.81.51,1.68,1.68,0,0,0,.36,1.39A3.31,3.31,0,0,1,33.72,8a12.93,12.93,0,0,0,.12,2.22A1.12,1.12,0,0,0,35,11s.06-1.38.2-2.7c.41-.94,2.07-1.14,2.38.06a3.26,3.26,0,0,1-.38,2.55c-.29.59-.8.89-1.27.67A2.47,2.47,0,0,0,38,14.39c1.45.4,1.58-.13,2.33-.52A6.52,6.52,0,0,0,41.3,13.18Z"/><path class="cls-12" d="M35.91,11.6V27.26a4.66,4.66,0,0,0,4.92.2c3-1.42,2.93-2,2.93-3.55V7.19s-3.39,4-5.82,4.84C36.05,12.69,35.91,11.6,35.91,11.6Z"/><path class="cls-25" d="M33.16,20.29c1.17.09,2.38.83,2.53,5.81a16.34,16.34,0,0,1-5.21,11.8c-2.41,2.09-7.28,3.58-12,3.4a3.33,3.33,0,0,1-.28-4.12,27.88,27.88,0,0,0,5.66-1.29c2.21-.88,4.11-2.2,5.43-6.53S29.86,20.45,33.16,20.29Z"/></g></g></g></svg>