<svg xmlns="http://www.w3.org/2000/svg" viewBox="0 0 69.31 103.62"><defs><style>.cls-1{isolation:isolate;}.cls-2{fill:#6b99d1;opacity:0.15;mix-blend-mode:multiply;}.cls-3{fill:#dceeff;}.cls-4{fill:#fff;}.cls-5{fill:#c8e2ff;}.cls-6{fill:#a5cbfa;}.cls-7{fill:#ffa8a7;}.cls-8{fill:#f5fbfb;}.cls-9{fill:#6a89ce;}.cls-10{fill:#2d2979;}.cls-11{fill:#c4d9ff;}.cls-12{fill:#aacaf9;}.cls-13{fill:#f28f8f;}.cls-14{fill:#7fa8e6;}.cls-15{fill:#3a2c6d;}.cls-16{fill:#eff6fe;}.cls-17{fill:#aad1fc;}.cls-18{fill:#aeb5b7;}</style></defs><title>asset-31</title><g class="cls-1"><g id="Layer_2" data-name="Layer 2"><g id="Objects"><path class="cls-2" d="M68.25,79,45.48,65.8a5.63,5.63,0,0,0-5.09,0L17.61,79c-1.4.81-1.4,2.12,0,2.94L40.39,95a5.57,5.57,0,0,0,5.09,0L68.25,81.89C69.66,81.07,69.66,79.76,68.25,79Z"/><path class="cls-3" d="M68.25,51.88,45.48,38.74a5.57,5.57,0,0,0-5.09,0L17.61,51.88c-1.4.82-1.4,2.13,0,2.94L40.39,68a5.63,5.63,0,0,0,5.09,0L68.25,54.82C69.66,54,69.66,52.7,68.25,51.88Z"/><path class="cls-4" d="M42.93,39.13a4.25,4.25,0,0,1,2,.47L67.75,52.75c.41.24.56.47.56.6s-.15.37-.56.61L45,67.11a4.68,4.68,0,0,1-4.09,0L18.11,54c-.4-.24-.55-.48-.55-.61s.15-.36.55-.6L40.89,39.6a4.24,4.24,0,0,1,2-.47m0-1a5.13,5.13,0,0,0-2.54.61L17.61,51.88c-1.4.82-1.4,2.13,0,2.94L40.39,68a5.61,5.61,0,0,0,5.09,0L68.25,54.82c1.41-.81,1.41-2.12,0-2.94L45.48,38.74a5.15,5.15,0,0,0-2.55-.61Z"/><path class="cls-5" d="M69.31,76.34a1.82,1.82,0,0,1-1.06,1.47L45.48,91a5.14,5.14,0,0,1-2.55.6v-23A5.17,5.17,0,0,0,45.48,68L68.25,54.82a1.77,1.77,0,0,0,1.06-1.47Z"/><path class="cls-6" d="M16.56,76.34a1.82,1.82,0,0,0,1.05,1.47L40.39,91a5.1,5.1,0,0,0,2.54.6v-23A5.16,5.16,0,0,1,40.39,68L17.61,54.82a1.77,1.77,0,0,1-1.05-1.47Z"/><path class="cls-7" d="M26.31,40.16a35.19,35.19,0,0,1-5.07,6.91c-.56.64-.81,1.25-1.72,2.58A10,10,0,0,1,16,52.89c-1.23.57-1.76.59-2,.39s-.16-.58.37-.9a8.27,8.27,0,0,0,2.32-1.81s-1.12.78-1.83,1.18a7.88,7.88,0,0,1-2,.82c-.69.16-1.46-.53-.94-.88s1-.47,2.07-1.08a8.12,8.12,0,0,0,1.53-1.15,15.62,15.62,0,0,1-2.24.92,3.29,3.29,0,0,1-1.91.16c-.34-.07-.65-.61,0-.95a12.46,12.46,0,0,0,2.69-1.19c.82-.56,1.32-1.07,1.12-1.12s-.64.32-1.5.42-1.68-.28-1.7-.74.17-.25,1-.48a20.61,20.61,0,0,1,2.63-1,9.4,9.4,0,0,0,2.61-.84c.88-.46,2.72-3.32,4.1-5.89a88.3,88.3,0,0,0,3-9.39c.87-3.14,2.07-9.57,2.7-11.74s1.68-2.68,3-3c1.52-.35,2.32,1.56,2,3.4C32.57,21.28,30,33.82,26.31,40.16Z"/><path class="cls-8" d="M20.08,42.38l-1.32,1.71a3.19,3.19,0,0,0,1.54,1.54c1.29.75,1.76.64,1.76.64l1.3-1.66Z"/><path class="cls-9" d="M31.15,14.32c-1.55-.24-2.83,1.2-3.49,3.45s-2,8.8-2.4,10.54C23.09,38,19.43,43.09,19.43,43.09A5.78,5.78,0,0,0,23,45.28a49.77,49.77,0,0,0,6.58-10.82c2-4.62,3-10.92,3.35-12.74C33.62,17.47,33.93,14.76,31.15,14.32Z"/><path class="cls-10" d="M15.65,81.67a11.9,11.9,0,0,0,.3,1.58,6.68,6.68,0,0,1,.23,2.46c-.13.58-1.78,1.4-2.69,1.52A5.71,5.71,0,0,0,10.65,89a5.22,5.22,0,0,1-4,1.49c-1.27-.15-2.7-.45-3-1s.12-1.09,2.79-3,4.46-3.06,5.3-4.82Z"/><path class="cls-10" d="M25.33,99.72a4.18,4.18,0,0,1-3,1.59,12.67,12.67,0,0,1-1.85.08c-.65,0-1.65-.4-1.59-1.21a1.3,1.3,0,0,1,.34-.68c1.05-1.36,2.17-2.65,3.13-4.07a12.77,12.77,0,0,0,2.53-5.52l4,0c0,.33.11.81.17,1.25s.18.88.28,1.32a3.64,3.64,0,0,1-.11,2.6,5.48,5.48,0,0,1-1.55,1.4A15.07,15.07,0,0,0,25.33,99.72Z"/><path class="cls-11" d="M46.25,47.31c1.45,9.07-2.58,12.45-7.82,14.38-3.75,1.39-9.14,3.52-9.14,3.52s.07,2,.11,6.45c0,3.94-.48,18.3-.48,18.3a4.38,4.38,0,0,1-4,0s-2.11-11-2.56-16c-.6-6.73-1.64-11.13-1.29-12.58.3-1.27,7.65-4.89,10-6.82L15.64,59.71a27.37,27.37,0,0,1,.45,5.06c-.14,5.34-.44,16.9-.44,16.9s-2.11,1.52-3.91,0c0,0-3.88-22.88-3.41-25.91C8.78,52.92,22.35,47,24.74,45c1.37-1.15,2.89-2.38,2.89-2.38Z"/><path class="cls-12" d="M31.05,54.55a9.24,9.24,0,0,1-3.47-4.31,6.63,6.63,0,0,0,.84,3.58c.1.65-12.78,5.89-12.78,5.89Z"/><path class="cls-7" d="M41,12.65s-.22,4.32-.12,4.7,2,1.65,2.53,2.1-3,3.94-4.71,4.73-7.16-1.29-7.25-4,.93-4.92,1.76-5S41,12.65,41,12.65Z"/><path class="cls-13" d="M33.86,17.59c-.57-.51.09-1.64.48-2.43,1.78-.54,6.61-2.51,6.61-2.51s0,1-.07,1.69h0a2.84,2.84,0,0,1-1.16,2.13,7.72,7.72,0,0,1-1.92,1.12C37.09,17.87,35.17,18.77,33.86,17.59Z"/><path class="cls-8" d="M41.44,18s-1.85,3.05-7.8,3.61a6.63,6.63,0,0,1,.7-6.25s-1.75-1.41-3-1.14a6.2,6.2,0,0,0-2.7,3.45,28,28,0,0,0-1.54,10c.07,4.59-.15,16-.15,16s-.75,3.35,4.8,5.9A15.26,15.26,0,0,0,41.4,51c2.21-.52,4.58-1.36,5.06-2.4-.44-3.66-1.58-10.08-1.27-13.92.33-4.06,1.19-7,1.41-10.28s-.43-3.2-2.06-4.36A24.77,24.77,0,0,0,41.44,18Z"/><path class="cls-14" d="M34.34,15.36S29.12,22.17,32.6,30c0,0-.79,16.66-.93,20.61a7.75,7.75,0,0,1-3.28-2.25S26.45,47,26.48,43.57c0,0,.31-6.07.49-11.42s-.16-9.85,1.15-13.65S31.69,14,31.69,14Z"/><path class="cls-9" d="M33.86,16.16V14.3a9.79,9.79,0,0,0-2.47,3.05,38.24,38.24,0,0,0-1.83,6.38c-.17,1.11,1.55,3.51,1.55,3.51s-1.18,1.17-1,2,2.24,5.07,2.17,6.4c0-.23.3-5.62.3-5.62a28.13,28.13,0,0,1-.73-7.23C32.3,18,33.86,16.16,33.86,16.16Z"/><path class="cls-14" d="M40.83,17.35c0,1.38-2.07,5.08-8.23,12.62-.44,7.59-.93,20.61-.93,20.61s10.68,5.69,15.66.54c0,0-.33-2.42-1.18-6.56s-.59-10.15-.06-14.43,1.77-8,.06-9.47A37.18,37.18,0,0,0,40.83,17.35Z"/><path class="cls-7" d="M31.18,6.21h0C31.7,2.86,34.11.32,37.57.51A6.65,6.65,0,0,1,41,12.65a6.85,6.85,0,0,1-.54,1.47c-1.22,1.43-4.92,2.31-6,2.16A3.16,3.16,0,0,1,31.69,14C30.54,11.39,30.9,7.87,31.18,6.21Z"/><path class="cls-15" d="M31.68,3.51A6.58,6.58,0,0,1,38.59.65a6.65,6.65,0,0,1,2.37,12c.07-.23,1.81-2.83,0-3.41a2.2,2.2,0,0,0-.38,1.37.84.84,0,0,1-.69-1.13c.06-.29.11-.56.16-.8a3.06,3.06,0,0,0-.51-2.31,2.69,2.69,0,0,1-.47-2.18,8.9,8.9,0,0,1-5.06.4A4.73,4.73,0,0,1,31.68,3.51Z"/><path class="cls-15" d="M39.09,4.19a7.5,7.5,0,0,1-3.92,1.29c-2.78.29-5.25-1.31-5.83-2.45-.89-1.71.88-.48,2.47-1.33S39.39-2,41.92,2.39c0,0,1.44.23,1.82,1.08a9.8,9.8,0,0,1-.33,5.82Z"/><path class="cls-7" d="M41,12.63s.16.35.81.38c1.21.06,2.63-2.19,1.65-3.72a1.57,1.57,0,0,0-2.43,0Z"/><path class="cls-7" d="M40,56.14a24.16,24.16,0,0,1,2.32-1.61,5.09,5.09,0,0,0,2-1.45c.7-.81,1.71-3.75,2.37-6.6a28.39,28.39,0,0,0,.22-9.69c-.71-3.85-2.57-9.16-3.12-11.36s.1-3.15,1.07-4.06c1.14-1.07,2.86-.79,4,2.26A60.08,60.08,0,0,1,52,36.71a30.36,30.36,0,0,1-.67,9.92,35.27,35.27,0,0,1-3.08,8c-.36.76-.45,1.41-1,2.94a10.12,10.12,0,0,1-2.53,4.05c-1,.88-1.54,1-1.81.9s-.3-.52.12-1a8.25,8.25,0,0,0,1.76-2.36s-.87,1-1.45,1.62a8.37,8.37,0,0,1-1.73,1.33c-.62.33-1.55-.13-1.13-.6s.86-.72,1.7-1.59a8.18,8.18,0,0,0,1.18-1.52,16,16,0,0,1-1.92,1.49,3.36,3.36,0,0,1-1.8.65c-.34,0-.79-.42-.2-.93a12.36,12.36,0,0,0,2.28-1.86c.64-.75,1-1.38.79-1.37s-.54.47-1.34.8-1.7.17-1.84-.27S39.27,56.59,40,56.14Z"/><path class="cls-8" d="M45.5,50.42l-.78,1.78s.19.85,1.8,1.58,2.13.45,2.13.45l.9-2Z"/><path class="cls-9" d="M32.6,30S36.76,24,38.28,22a20.09,20.09,0,0,0,2.51-5.2l0-1.07a1,1,0,0,1,.93.52,29.81,29.81,0,0,0,1.67,2.51S42.1,24,40.65,25.64a7.86,7.86,0,0,1-3.55,2.14S37.71,30,37,30.5a21.1,21.1,0,0,0-4.71,5.09Z"/><path class="cls-9" d="M45.18,20.8c-1.09.6-2.23,2-1.44,5.15s2.14,7.2,2.78,10.08a23.31,23.31,0,0,1,.12,9.26C46,48.06,45.1,51,45.1,51s2.21,2,4.28,2a33.28,33.28,0,0,0,2.79-9.73,42.91,42.91,0,0,0-2.77-18.9C47.33,19.28,45.18,20.8,45.18,20.8Z"/><path class="cls-16" d="M9.3,51.09l10.36-6a.62.62,0,0,1,.59,0L38.41,55.6,27.76,61.75Z"/><polygon class="cls-17" points="27.86 60.87 33.44 57.65 17.11 48.22 11.5 51.42 27.86 60.87"/><polygon class="cls-18" points="30.6 51.91 30.5 51.97 27.76 53.55 22.89 50.74 22.79 50.68 25.63 49.04 30.6 51.91"/><polygon class="cls-17" points="30.5 51.97 27.76 53.55 22.89 50.74 25.63 49.16 30.5 51.97"/><path class="cls-5" d="M38.41,55.6v.24a1,1,0,0,1-.5.86l-9.65,5.58a1,1,0,0,1-.5.13,1,1,0,0,1-.5-.13L9.8,52.2a1,1,0,0,1-.5-.87v-.24L27.76,61.74Z"/><path class="cls-17" d="M27.76,61.74v.67a1,1,0,0,1-.5-.13L9.8,52.2a1,1,0,0,1-.5-.87v-.24Z"/><path class="cls-16" d="M27.48,61.89a1.15,1.15,0,0,1-1-.08l-17.38-10A1.19,1.19,0,0,1,8.5,51L6.6,39.6a1.23,1.23,0,0,1,0-.19,1.19,1.19,0,0,1,.35-.84L25,49a.87.87,0,0,1,.42.61Z"/><path class="cls-5" d="M27.76,61.75l-.12.06-.16.08L25.42,49.61A.87.87,0,0,0,25,49L6.93,38.57a2.23,2.23,0,0,1,.24-.19L25.28,48.83a.9.9,0,0,1,.42.62Z"/><path class="cls-17" d="M17.69,51.42a3.87,3.87,0,0,0-1.75-2.26c-.84-.48-1.42-.26-1.29.5a3.79,3.79,0,0,0,1.75,2.25C17.24,52.4,17.82,52.18,17.69,51.42Z"/><path class="cls-2" d="M30.74,91.15l-9.13-5.28C15.41,82.3,6.86,81.44,2.5,84S-.37,91.41,5.82,95L15,100.26c6.19,3.58,14.75,4.44,19.11,1.92S36.94,94.72,30.74,91.15Z"/></g></g></g></svg>