<svg xmlns="http://www.w3.org/2000/svg" viewBox="0 0 65.99 95.8"><defs><style>.cls-1{isolation:isolate;}.cls-2{fill:#2d2979;}.cls-3{fill:#6f89d1;}.cls-4{fill:#7fa8e6;}.cls-5{fill:#6b99d1;opacity:0.15;mix-blend-mode:multiply;}.cls-6{fill:#dceeff;}.cls-7{fill:#fff;}.cls-8{fill:#a5cbfa;}.cls-9{fill:#c8e2ff;}.cls-10{fill:#ffa8a7;}.cls-11{fill:#f28f8f;}.cls-12{fill:#543354;}.cls-13{fill:#f5fbfb;}.cls-14{fill:#e4f2f2;}</style></defs><title>asset-29</title><g class="cls-1"><g id="Layer_2" data-name="Layer 2"><g id="Objects"><path class="cls-2" d="M40.18,69.24a3.72,3.72,0,0,0,3.38,1.09c.81-.18,1.34-.33,1.95-.52a13.34,13.34,0,0,1,2.83-.32,25.93,25.93,0,0,0,2.79-.13,10.06,10.06,0,0,0,2.52-.71c1.06-.45,2.87-2.61,1.54-3.43a1,1,0,0,0-.33-.1c-3.56-.54-8.15-.33-9.28-1.69l-4.83-.24a46.63,46.63,0,0,1-.86,4.71,2,2,0,0,0-.06.6A1.38,1.38,0,0,0,40.18,69.24Z"/><path class="cls-3" d="M43.18,41.44l-2-1.7a20.55,20.55,0,0,0-1.25,4.52c0,1.2.85,18.94.85,18.94s2.71,2,4.81.23c0,0,1.44-21,1.77-24.28l-4.17,2.29"/><path class="cls-2" d="M50.86,74.67a3.73,3.73,0,0,0,3.47.77,19.59,19.59,0,0,0,1.89-.69A13.83,13.83,0,0,1,59,74.17c1-.15,1.79-.14,2.77-.38a10.35,10.35,0,0,0,2.44-.94c1-.55,2.62-2.87,1.22-3.56a.94.94,0,0,0-.34-.07c-3.59-.21-8.14.42-9.39-.84l-4.83.21c.14,0-.38,4.41-.43,4.77a2,2,0,0,0,0,.6A1.41,1.41,0,0,0,50.86,74.67Z"/><path class="cls-4" d="M51.27,45.13A20.38,20.38,0,0,0,50,49.65c0,1.19.86,18.94.86,18.94s2.72,1.62,4.83-.21c0,0,1.42-20.56,1.74-23.84"/><path class="cls-5" d="M1.05,79.1,23.83,66a5.63,5.63,0,0,1,5.09,0L51.69,79.1c1.41.81,1.41,2.13,0,2.94L28.92,95.19a5.63,5.63,0,0,1-5.09,0L1.05,82C-.35,81.23-.35,79.91,1.05,79.1Z"/><path class="cls-6" d="M1.05,51.4,23.83,38.25a5.63,5.63,0,0,1,5.09,0L51.69,51.4c1.41.81,1.41,2.13,0,2.94L28.92,67.49a5.63,5.63,0,0,1-5.09,0L1.05,54.34C-.35,53.53-.35,52.21,1.05,51.4Z"/><path class="cls-7" d="M26.37,38.64a4.25,4.25,0,0,1,2.05.47L51.19,52.26c.41.24.56.48.56.61s-.15.36-.56.6L28.42,66.62a4.68,4.68,0,0,1-4.09,0L1.55,53.47c-.4-.24-.55-.47-.55-.6s.15-.37.55-.61L24.33,39.11a4.24,4.24,0,0,1,2-.47m0-1a5.13,5.13,0,0,0-2.54.61L1.05,51.4c-1.4.81-1.4,2.13,0,2.94L23.83,67.49a5.7,5.7,0,0,0,5.09,0L51.69,54.34c1.41-.81,1.41-2.13,0-2.94L28.92,38.25a5.15,5.15,0,0,0-2.55-.61Z"/><path class="cls-8" d="M0,75.85a1.81,1.81,0,0,0,1.05,1.47L23.83,90.47a5.2,5.2,0,0,0,2.54.61v-23a5.16,5.16,0,0,1-2.54-.6L1.05,54.34a1.8,1.8,0,0,1-1-1.47Z"/><path class="cls-9" d="M52.75,75.85a1.8,1.8,0,0,1-1.06,1.47L28.92,90.47a5.22,5.22,0,0,1-2.55.61v-23a5.17,5.17,0,0,0,2.55-.6L51.69,54.34a1.79,1.79,0,0,0,1.06-1.47Z"/><path class="cls-3" d="M41,34.58c-2.37.86-18.34,6.86-18.34,6.86s.63,11.33,4.05,9.5l16.45-9.5,4.17-2.29C47.71,35.46,43.61,33.64,41,34.58Z"/><path class="cls-4" d="M57.45,44.54c.37-3.7-3.73-5.52-6.33-4.58-2.36.87-18.33,6.86-18.33,6.86L16.94,45.48C16.56,51.41,20.4,54,24.82,55.9s8.6,2.25,12,.42l16.46-9.5-2-1.69"/><path class="cls-10" d="M34.18,6.79c-.34-3.38-2.62-6-6.09-6a6.68,6.68,0,0,0-6.64,6.7,6.6,6.6,0,0,0,2.64,5.25s.09.43.21.84h0a16.42,16.42,0,0,1-.52,2.08c-.21.38-1.21,0-2.55-.19-.92-.14-1.13,1.58-.56,3.19.52,1.44,2.78,3,4.89,3.33s5.52-.94,4.31-1.87-1.23-1.27-1-1.91.49-1.36.63-1.72a7,7,0,0,0,1.7.21c1.37-.12,1.79-.82,2.25-2.38A19.07,19.07,0,0,0,34.18,6.79Z"/><path class="cls-11" d="M30,15.37c-.89-.62-.69-2-.85-3.07l-1.48,1.26-2,.18-1.41-.58c0,.13.07.26.11.4h0a16.42,16.42,0,0,1-.52,2.08c-.21.38-1.21,0-2.55-.19-.91-.13-1.12,1.52-.58,3.1L21.7,20a5.73,5.73,0,0,0,.89.7L29.74,20c-1.08-.85-1.09-1.2-.91-1.81s.49-1.36.63-1.72a7,7,0,0,0,1.7.21,2.58,2.58,0,0,0,.92-.23A12.44,12.44,0,0,1,30,15.37Z"/><path class="cls-12" d="M34.82.36C32.71,1,24.89-2,23.48,2.66a3.69,3.69,0,0,0-2,2.84,7.91,7.91,0,0,0,.81,6.23A32.19,32.19,0,0,1,24,15a5.31,5.31,0,0,0,2.21,1c1.29.23,2.19-1,2.55-1.77a4.18,4.18,0,0,0,.38-2c-.21.26-1.13.14-1.42-.82a3.16,3.16,0,0,1,.19-2.82,1.25,1.25,0,0,1,2.27.11,7.92,7.92,0,0,1,.09,2.3A1.36,1.36,0,0,0,31.38,10a16.92,16.92,0,0,0,.28-2.31,2.21,2.21,0,0,1,.57-1.57,1.55,1.55,0,0,0,.38-1.42,3.69,3.69,0,0,0,2.84-1.88C36.43,1.05,36.93-.3,34.82.36Z"/><path class="cls-13" d="M23.06,15.74c-.14.49.27,1.29,2,2.22a7.18,7.18,0,0,0,3.76,1.1s2.8,1.51,4,2.36c1.53,1.07,2.21,4.16,2.42,9.38.18,4.62.23,12,.16,15.84a4.74,4.74,0,0,1-2.66,4.17,7.79,7.79,0,0,1-4,.81c-3.66-.3-10.37-3.64-11.86-6.14,0-5.3.49-8.52.3-11.68-.33-5.58-1.55-10,0-14.49,1.34-3.9,2.9-4.09,4.4-3.88A9.56,9.56,0,0,1,23.06,15.74Z"/><path class="cls-14" d="M24,15.12c-.36-.15-.95.28-1.25.52,0,0-.51,1.42,1.58,2.75,3,1.94,4.79,1.34,5.24,1.05,0,0,0-1.7-.51-1.86,0,0-.82.31-2.92-.52C24.14,16.28,24,15.12,24,15.12Z"/><path class="cls-10" d="M56.56,35.15a24.4,24.4,0,0,0-2.46,1.39,5.06,5.06,0,0,1-2.17,1.16c-1,.28-3.49.18-6.93-.14s-5.48-1.67-6.64-3.2c-2.54-3.37-2.53-7.47-3.59-10.52-.75-2.14-2.56-2.52-3.5-1.58-.73.73-1.5,3.6-.48,7.69.79,3.17,2.87,7.43,5.68,9.3a16.69,16.69,0,0,0,6.32,2.33,59.71,59.71,0,0,0,8.82.36c.84,0,1.47.21,3.07.4a10.06,10.06,0,0,0,4.75-.52c1.24-.54,1.6-.94,1.6-1.23s-.34-.5-.93-.32a8.1,8.1,0,0,1-2.89.57s1.32-.34,2.09-.61a8.12,8.12,0,0,0,1.94-1c.57-.41.56-1.45,0-1.28s-1,.46-2.18.85a8.29,8.29,0,0,1-1.87.39,15.17,15.17,0,0,0,2.17-1.08,3.3,3.3,0,0,0,1.37-1.34c.17-.3,0-.89-.75-.58a12.33,12.33,0,0,1-2.67,1.25c-1,.24-1.66.28-1.57.11s.66-.28,1.3-.86.89-1.45.56-1.77S57.28,34.68,56.56,35.15Z"/><path class="cls-14" d="M32.31,21.62c-1,.08-2.25.81-2.19,5.38s3.09,9.37,4.2,10.56a12.27,12.27,0,0,0,6.35,3.77c3.46.89,9.61.62,9.61.62a7.37,7.37,0,0,0,0-4.09A37.63,37.63,0,0,1,42.73,37a7.94,7.94,0,0,1-5-3.67c-1.19-1.74-2.21-7.2-2.48-8.45S34.22,21.47,32.31,21.62Z"/></g></g></g></svg>