<svg xmlns="http://www.w3.org/2000/svg" viewBox="0 0 59.8 89.17"><defs><style>.cls-1{isolation:isolate;}.cls-2{fill:#6b99d1;opacity:0.15;mix-blend-mode:multiply;}.cls-3{fill:#98bff9;}.cls-4{fill:#dceeff;}.cls-5{fill:#c8e2ff;}.cls-6{fill:none;}.cls-7{fill:#a5cbfa;}.cls-8{fill:#031f60;}.cls-9{fill:#57f7e0;}</style></defs><title>asset-36</title><g class="cls-1"><g id="Layer_2" data-name="Layer 2"><g id="Objects"><path class="cls-2" d="M56.14,65.91,41.58,57.5a3.72,3.72,0,0,0-3.39,0L11,73.37,6.33,70.69a1.89,1.89,0,0,0-1.7,0L.35,73.11c-.47.28-.47.72,0,1L26.26,89A1.89,1.89,0,0,0,28,89l4.26-2.42a.52.52,0,0,0,0-1l-3.38-1.94,27.3-15.76A1,1,0,0,0,56.14,65.91Z"/><path class="cls-3" d="M31.14,61.49c7-4.06,12.73-13.93,12.73-22.05V12.77h0l3.2-1.84c3.51-2,6.68-2.22,9-.9h0l.09.07c2.24,1.35,3.63,4.17,3.63,8.17V48.63c0,8.12-5.7,18-12.73,22.05l-6.39,3.69C33.65,78.43,28,75.14,28,67V63.33Z"/><path class="cls-4" d="M12,27.47c0-8.12,5.7-18,12.73-22l6.38-3.69c3.48-2,6.63-2.21,8.93-.92h0l.07,0h0L56.05,10c-2.3-1.32-5.47-1.13-9,.9l-3.2,1.84h0l-3.19,1.85c-7,4.05-12.73,13.93-12.73,22V63.33l-3.19,1.85C17.73,69.24,12,66,12,57.83Z"/><path class="cls-5" d="M17.34,30.54V60.89c0,5.63,2.74,8.94,6.77,9.07a11.23,11.23,0,0,1-1.47-6V33.6c0-8.12,5.7-18,12.73-22l6.39-3.69a11.26,11.26,0,0,1,6-1.72,11.47,11.47,0,0,1,2.13.31S46.24,4.38,45.58,4C43.26,2.57,40,2.74,36.45,4.8L30.07,8.49C23,12.55,17.34,22.41,17.34,30.54Z"/><polygon class="cls-6" points="43.87 12.77 43.87 12.77 43.87 12.77 43.87 12.77"/><path class="cls-5" d="M28,67c0,8.12,5.7,11.41,12.73,7.35l6.39-3.68c7-4.06,12.73-13.94,12.73-22V18.28c0-8.12-5.7-11.41-12.73-7.35l-6.39,3.69C33.65,18.67,28,28.55,28,36.67Zm2-30.35c0-7.36,5.38-16.68,11.75-20.36l6.39-3.68a9.68,9.68,0,0,1,4.7-1.48c3.19,0,5.09,2.67,5.09,7.13V48.63C57.84,56,52.46,65.31,46.09,69L39.7,72.67A9.68,9.68,0,0,1,35,74.15h0a4.31,4.31,0,0,1-3.55-1.65A8.74,8.74,0,0,1,29.91,67Z"/><path class="cls-5" d="M3,31.49l3.86-1.95h0a2.39,2.39,0,0,1,.59-.19h.06a2.64,2.64,0,0,1,.63,0h.08a4.22,4.22,0,0,1,1.51.55L29.15,41.08a8.67,8.67,0,0,1,3,3.2c.18.32.34.64.49,1a8.06,8.06,0,0,1,.73,3.17h0v27a4.53,4.53,0,0,1-.21,1.4l-.06.16c0,.06-.05.13-.08.19l-.09.16a.86.86,0,0,1-.1.16.35.35,0,0,1,0,.08,2.09,2.09,0,0,1-.62.57l0,0h0L28,80.27l-2.26-4.42L9.78,66.66a9.36,9.36,0,0,1-4.25-7.35V36.41Z"/><path class="cls-7" d="M21.46,50.13,32,44l.16.24c.18.32.34.64.49,1a8.06,8.06,0,0,1,.73,3.17h0v27a4.53,4.53,0,0,1-.21,1.4l-.06.16c0,.06-.05.13-.08.19l-.09.16a.86.86,0,0,1-.1.16.35.35,0,0,1,0,.08,2.09,2.09,0,0,1-.62.57l0,0h0L28,80.27l-2.26-4.42-4.23-2.44Z"/><path class="cls-8" d="M25.17,43.09,5.8,31.9c-2.35-1.35-4.25-.26-4.25,2.45v27A9.36,9.36,0,0,0,5.8,68.67L25.17,79.86c2.35,1.35,4.25.26,4.25-2.45v-27A9.36,9.36,0,0,0,25.17,43.09Z"/><polygon class="cls-9" points="25.44 47.84 21.45 45.54 21.46 50.13 25.44 52.43 25.44 47.84"/><polygon class="cls-9" points="25.44 53.42 21.45 51.13 21.46 53.7 25.44 55.99 25.44 53.42"/><polygon class="cls-9" points="25.44 57.03 21.45 54.73 21.46 56.02 25.44 58.31 25.44 57.03"/><polygon class="cls-9" points="25.44 59.33 21.45 57.03 21.46 57.62 25.44 59.91 25.44 59.33"/></g></g></g></svg>