<svg xmlns="http://www.w3.org/2000/svg" xmlns:xlink="http://www.w3.org/1999/xlink" viewBox="0 0 60.53 86.4"><defs><style>.cls-1{isolation:isolate;}.cls-2{fill:#6b99d1;opacity:0.15;mix-blend-mode:multiply;}.cls-3{fill:url(#Degradado_sin_nombre_54);}.cls-4{fill:url(#Degradado_sin_nombre_54-2);}.cls-5{fill:url(#Degradado_sin_nombre_54-3);}.cls-6{fill:url(#Degradado_sin_nombre_54-4);}.cls-7{fill:url(#Degradado_sin_nombre_54-5);}.cls-8{fill:url(#Degradado_sin_nombre_54-6);}.cls-9{fill:url(#Degradado_sin_nombre_54-7);}.cls-10{fill:url(#Degradado_sin_nombre_54-8);}.cls-11{fill:url(#Degradado_sin_nombre_54-9);}.cls-12{fill:url(#Degradado_sin_nombre_54-10);}.cls-13{fill:url(#Degradado_sin_nombre_54-11);}.cls-14{fill:url(#Degradado_sin_nombre_54-12);}.cls-15{fill:url(#Degradado_sin_nombre_55);}.cls-16{fill:url(#Degradado_sin_nombre_55-2);}.cls-17{fill:url(#Degradado_sin_nombre_55-3);}.cls-18{fill:url(#Degradado_sin_nombre_55-4);}.cls-19{fill:url(#Degradado_sin_nombre_55-5);}.cls-20{fill:url(#Degradado_sin_nombre_55-6);}.cls-21{fill:url(#Degradado_sin_nombre_55-7);}.cls-22{fill:url(#Degradado_sin_nombre_55-8);}.cls-23{fill:#abffef;}.cls-24{fill:#41e5c9;}.cls-25{fill:#6cffe6;}.cls-26{fill:none;stroke:#fff;stroke-linecap:round;stroke-miterlimit:10;}.cls-27{fill:url(#Degradado_sin_nombre_54-13);}.cls-28{fill:url(#Degradado_sin_nombre_54-14);}.cls-29{fill:url(#Degradado_sin_nombre_54-15);}.cls-30{fill:url(#Degradado_sin_nombre_54-16);}.cls-31{fill:url(#Degradado_sin_nombre_54-17);}.cls-32{fill:url(#Degradado_sin_nombre_54-18);}.cls-33{fill:url(#Degradado_sin_nombre_54-19);}.cls-34{fill:url(#Degradado_sin_nombre_54-20);}.cls-35{fill:url(#Degradado_sin_nombre_54-21);}.cls-36{fill:url(#Degradado_sin_nombre_54-22);}.cls-37{fill:url(#Degradado_sin_nombre_54-23);}.cls-38{fill:url(#Degradado_sin_nombre_54-24);}.cls-39{fill:url(#Degradado_sin_nombre_54-25);}.cls-40{fill:url(#Degradado_sin_nombre_54-26);}.cls-41{fill:url(#Degradado_sin_nombre_54-27);}.cls-42{fill:url(#Degradado_sin_nombre_54-28);}</style><linearGradient id="Degradado_sin_nombre_54" x1="1209.28" y1="-53.55" x2="1209.28" y2="-35.6" gradientTransform="translate(-1200.98 79.84)" gradientUnits="userSpaceOnUse"><stop offset="0" stop-color="#c8e2ff"/><stop offset="0.18" stop-color="#c2defc"/><stop offset="0.41" stop-color="#b2d1f4"/><stop offset="0.67" stop-color="#97bce7"/><stop offset="0.95" stop-color="#729fd5"/><stop offset="1" stop-color="#6b99d1"/></linearGradient><linearGradient id="Degradado_sin_nombre_54-2" x1="1209.28" y1="-53.55" x2="1209.28" y2="-35.6" gradientTransform="translate(-558.02 1105) rotate(-60)" xlink:href="#Degradado_sin_nombre_54"/><linearGradient id="Degradado_sin_nombre_54-3" x1="1209.28" y1="-53.55" x2="1209.28" y2="-35.6" gradientTransform="translate(-558.02 1105) rotate(-60)" xlink:href="#Degradado_sin_nombre_54"/><linearGradient id="Degradado_sin_nombre_54-4" x1="1215.25" y1="-57" x2="1215.25" y2="-39.05" gradientTransform="translate(-1206.94 76.47)" xlink:href="#Degradado_sin_nombre_54"/><linearGradient id="Degradado_sin_nombre_54-5" x1="1215.25" y1="-57" x2="1215.25" y2="-39.05" gradientTransform="translate(-558.02 1105) rotate(-60)" xlink:href="#Degradado_sin_nombre_54"/><linearGradient id="Degradado_sin_nombre_54-6" x1="1215.25" y1="-57" x2="1215.25" y2="-39.05" gradientTransform="translate(-558.02 1105) rotate(-60)" xlink:href="#Degradado_sin_nombre_54"/><linearGradient id="Degradado_sin_nombre_54-7" x1="1221.23" y1="-60.44" x2="1221.23" y2="-42.49" gradientTransform="translate(-1212.9 73.26) rotate(-0.01)" xlink:href="#Degradado_sin_nombre_54"/><linearGradient id="Degradado_sin_nombre_54-8" x1="1221.23" y1="-60.44" x2="1221.23" y2="-42.49" gradientTransform="translate(-558.02 1105) rotate(-60)" xlink:href="#Degradado_sin_nombre_54"/><linearGradient id="Degradado_sin_nombre_54-9" x1="1221.23" y1="-60.44" x2="1221.23" y2="-42.49" gradientTransform="translate(-558.02 1105) rotate(-60)" xlink:href="#Degradado_sin_nombre_54"/><linearGradient id="Degradado_sin_nombre_54-10" x1="1227.2" y1="-63.89" x2="1227.2" y2="-45.94" gradientTransform="translate(-1218.88 69.57)" xlink:href="#Degradado_sin_nombre_54"/><linearGradient id="Degradado_sin_nombre_54-11" x1="1227.2" y1="-63.89" x2="1227.2" y2="-45.94" gradientTransform="translate(-558.02 1105) rotate(-60)" xlink:href="#Degradado_sin_nombre_54"/><linearGradient id="Degradado_sin_nombre_54-12" x1="1227.2" y1="-63.89" x2="1227.2" y2="-45.93" gradientTransform="translate(-558.02 1105) rotate(-60)" xlink:href="#Degradado_sin_nombre_54"/><linearGradient id="Degradado_sin_nombre_55" x1="1363.73" y1="62.16" x2="1363.73" y2="79.21" gradientTransform="matrix(-1, 0, 0, 1, 1403.78, 0)" gradientUnits="userSpaceOnUse"><stop offset="0" stop-color="#6b99d1"/><stop offset="0.05" stop-color="#729fd5"/><stop offset="0.33" stop-color="#97bce7"/><stop offset="0.59" stop-color="#b2d1f4"/><stop offset="0.82" stop-color="#c2defc"/><stop offset="1" stop-color="#c8e2ff"/></linearGradient><linearGradient id="Degradado_sin_nombre_55-2" x1="1363.73" y1="62.16" x2="1363.73" y2="79.21" xlink:href="#Degradado_sin_nombre_55"/><linearGradient id="Degradado_sin_nombre_55-3" x1="1369.7" y1="58.75" x2="1369.7" y2="75.93" xlink:href="#Degradado_sin_nombre_55"/><linearGradient id="Degradado_sin_nombre_55-4" x1="1369.7" y1="58.75" x2="1369.7" y2="75.94" xlink:href="#Degradado_sin_nombre_55"/><linearGradient id="Degradado_sin_nombre_55-5" x1="1375.68" y1="55.41" x2="1375.68" y2="72.46" xlink:href="#Degradado_sin_nombre_55"/><linearGradient id="Degradado_sin_nombre_55-6" x1="1375.68" y1="55.42" x2="1375.68" y2="72.46" xlink:href="#Degradado_sin_nombre_55"/><linearGradient id="Degradado_sin_nombre_55-7" x1="1381.65" y1="51.85" x2="1381.65" y2="68.9" xlink:href="#Degradado_sin_nombre_55"/><linearGradient id="Degradado_sin_nombre_55-8" x1="1381.65" y1="51.87" x2="1381.65" y2="68.91" xlink:href="#Degradado_sin_nombre_55"/><linearGradient id="Degradado_sin_nombre_54-13" x1="1363.73" y1="10.37" x2="1363.73" y2="28.32" gradientTransform="matrix(-1, 0, 0, 1, 1403.78, 0)" xlink:href="#Degradado_sin_nombre_54"/><linearGradient id="Degradado_sin_nombre_54-14" x1="1363.73" y1="10.37" x2="1363.73" y2="28.32" gradientTransform="matrix(-1, 0, 0, 1, 1403.78, 0)" xlink:href="#Degradado_sin_nombre_54"/><linearGradient id="Degradado_sin_nombre_54-15" x1="1363.73" y1="10.37" x2="1363.73" y2="28.32" gradientTransform="matrix(-1, 0, 0, 1, 1403.78, 0)" xlink:href="#Degradado_sin_nombre_54"/><linearGradient id="Degradado_sin_nombre_54-16" x1="1369.7" y1="6.93" x2="1369.7" y2="24.88" gradientTransform="matrix(-1, 0, 0, 1, 1403.78, 0)" xlink:href="#Degradado_sin_nombre_54"/><linearGradient id="Degradado_sin_nombre_54-17" x1="1369.7" y1="6.93" x2="1369.7" y2="24.88" gradientTransform="matrix(-1, 0, 0, 1, 1403.78, 0)" xlink:href="#Degradado_sin_nombre_54"/><linearGradient id="Degradado_sin_nombre_54-18" x1="1369.7" y1="6.93" x2="1369.7" y2="24.88" gradientTransform="matrix(-1, 0, 0, 1, 1403.78, 0)" xlink:href="#Degradado_sin_nombre_54"/><linearGradient id="Degradado_sin_nombre_54-19" x1="1375.68" y1="3.48" x2="1375.68" y2="21.43" gradientTransform="matrix(-1, 0, 0, 1, 1403.78, 0)" xlink:href="#Degradado_sin_nombre_54"/><linearGradient id="Degradado_sin_nombre_54-20" x1="1375.68" y1="3.48" x2="1375.68" y2="21.43" gradientTransform="matrix(-1, 0, 0, 1, 1403.78, 0)" xlink:href="#Degradado_sin_nombre_54"/><linearGradient id="Degradado_sin_nombre_54-21" x1="1375.68" y1="3.48" x2="1375.68" y2="21.43" gradientTransform="matrix(-1, 0, 0, 1, 1403.78, 0)" xlink:href="#Degradado_sin_nombre_54"/><linearGradient id="Degradado_sin_nombre_54-22" x1="1381.65" y1="0.04" x2="1381.65" y2="17.99" gradientTransform="matrix(-1, 0, 0, 1, 1403.78, 0)" xlink:href="#Degradado_sin_nombre_54"/><linearGradient id="Degradado_sin_nombre_54-23" x1="1381.65" y1="0.04" x2="1381.65" y2="17.99" gradientTransform="matrix(-1, 0, 0, 1, 1403.78, 0)" xlink:href="#Degradado_sin_nombre_54"/><linearGradient id="Degradado_sin_nombre_54-24" x1="1381.65" y1="0.04" x2="1381.65" y2="17.99" gradientTransform="matrix(-1, 0, 0, 1, 1403.78, 0)" xlink:href="#Degradado_sin_nombre_54"/><linearGradient id="Degradado_sin_nombre_54-25" x1="1343.69" y1="65.48" x2="1359.08" y2="56.74" gradientTransform="matrix(-1, 0, 0, 1, 1403.78, 0)" xlink:href="#Degradado_sin_nombre_54"/><linearGradient id="Degradado_sin_nombre_54-26" x1="1343.55" y1="58.84" x2="1358.99" y2="49.83" gradientTransform="matrix(-1, 0, 0, 1, 1403.78, 0)" xlink:href="#Degradado_sin_nombre_54"/><linearGradient id="Degradado_sin_nombre_54-27" x1="1343.53" y1="51.91" x2="1358.97" y2="42.99" gradientTransform="matrix(-1, 0, 0, 1, 1403.78, 0)" xlink:href="#Degradado_sin_nombre_54"/><linearGradient id="Degradado_sin_nombre_54-28" x1="1343.69" y1="44.76" x2="1358.77" y2="36.36" gradientTransform="matrix(-1, 0, 0, 1, 1403.78, 0)" xlink:href="#Degradado_sin_nombre_54"/></defs><title>asset-35</title><g class="cls-1"><g id="Layer_2" data-name="Layer 2"><g id="Objects"><path class="cls-2" d="M49.31,82.26,42.83,86a3.73,3.73,0,0,1-3.38,0L11.26,69.42a1,1,0,0,1,0-2l6.2-3.58a3.75,3.75,0,0,1,3.39,0L49.31,80.3A1,1,0,0,1,49.31,82.26Z"/><rect class="cls-3" x="6.72" y="27.85" width="3.17" height="15.52" transform="translate(-26.69 25) rotate(-60)"/><path class="cls-4" d="M15,38.19a2.49,2.49,0,0,0-1.13,1.94c0,.72.51,1,1.13.65a2.49,2.49,0,0,0,1.12-1.94C16.15,38.13,15.64,37.84,15,38.19Z"/><path class="cls-5" d="M2.38,30.36a1.58,1.58,0,1,1-2.17.58A1.59,1.59,0,0,1,2.38,30.36Z"/><rect class="cls-6" x="6.72" y="20.95" width="3.17" height="15.52" transform="translate(-20.71 21.55) rotate(-60)"/><path class="cls-7" d="M15,31.3a2.47,2.47,0,0,0-1.12,1.94c0,.71.5,1,1.12.65A2.48,2.48,0,0,0,16.15,32C16.15,31.23,15.65,30.94,15,31.3Z"/><path class="cls-8" d="M2.38,23.46A1.58,1.58,0,1,1,.8,26.2a1.58,1.58,0,1,1,1.58-2.74Z"/><rect class="cls-9" x="6.73" y="14.06" width="3.17" height="15.52" transform="translate(-14.74 18.1) rotate(-59.99)"/><path class="cls-10" d="M15,24.4a2.48,2.48,0,0,0-1.12,1.94c0,.72.5,1,1.12.65a2.48,2.48,0,0,0,1.12-1.94C16.15,24.33,15.65,24,15,24.4Z"/><path class="cls-11" d="M2.38,16.56a1.59,1.59,0,1,1-2.16.58A1.59,1.59,0,0,1,2.38,16.56Z"/><rect class="cls-12" x="6.73" y="7.16" width="3.17" height="15.52" transform="translate(-8.76 14.66) rotate(-60)"/><path class="cls-13" d="M15,17.51a2.48,2.48,0,0,0-1.12,1.94c0,.71.51,1,1.12.64a2.45,2.45,0,0,0,1.12-1.94C16.15,17.44,15.65,17.15,15,17.51Z"/><path class="cls-14" d="M2.39,9.67a1.58,1.58,0,1,1-2.17.58A1.59,1.59,0,0,1,2.39,9.67Z"/><rect class="cls-15" x="38.47" y="62.19" width="3.17" height="15.52"/><path class="cls-16" d="M38.47,77.71a1.58,1.58,0,1,0,1.58-1.58A1.58,1.58,0,0,0,38.47,77.71Z"/><rect class="cls-17" x="32.49" y="58.75" width="3.17" height="15.52"/><path class="cls-18" d="M32.49,74.27a1.59,1.59,0,1,0,1.59-1.59A1.59,1.59,0,0,0,32.49,74.27Z"/><rect class="cls-19" x="26.52" y="55.3" width="3.17" height="15.52"/><circle class="cls-20" cx="28.1" cy="70.82" r="1.58"/><rect class="cls-21" x="20.54" y="51.85" width="3.17" height="15.52"/><circle class="cls-22" cx="22.13" cy="67.38" r="1.58"/><path class="cls-23" d="M26,41.93,49.29,28.46A3.81,3.81,0,0,0,47.94,27L23,12.64a4.22,4.22,0,0,0-3.82,0L11.58,17Z"/><path class="cls-24" d="M40.33,66.83l7.61-4.4a4.21,4.21,0,0,0,1.91-3.31V30.34a3.82,3.82,0,0,0-.56-1.88L26,41.93Z"/><path class="cls-25" d="M40.9,35.52V65.59c0,1.22-.85,1.71-1.91,1.1l-26-15A4.24,4.24,0,0,1,11,48.34V18.27c0-1.22.86-1.72,1.91-1.11L39,32.21A4.21,4.21,0,0,1,40.9,35.52Z"/><path class="cls-26" d="M36.63,61.88,15.28,49.56A2.82,2.82,0,0,1,14,47.35V22.7c0-.81.57-1.14,1.27-.74L36.64,34.3a2.8,2.8,0,0,1,1.27,2.21V61.15C37.91,62,37.34,62.29,36.63,61.88Z"/><path class="cls-26" d="M17,46.37,16.93,27c0-.4.28-.57.63-.37L34.3,36.39a1.4,1.4,0,0,1,.63,1.1V56.73c0,.4-.29.57-.64.36L17.64,47.48A1.43,1.43,0,0,1,17,46.37Z"/><rect class="cls-27" x="38.47" y="11.92" width="3.17" height="15.52"/><path class="cls-28" d="M38.93,26.79a2.52,2.52,0,0,1,2.24,0,.69.69,0,0,1,0,1.3,2.52,2.52,0,0,1-2.24,0A.69.69,0,0,1,38.93,26.79Z"/><circle class="cls-29" cx="40.05" cy="11.92" r="1.58"/><rect class="cls-30" x="32.49" y="8.48" width="3.17" height="15.52"/><path class="cls-31" d="M33,23.35a2.46,2.46,0,0,1,2.24,0,.68.68,0,0,1,0,1.29,2.46,2.46,0,0,1-2.24,0C32.34,24.29,32.34,23.71,33,23.35Z"/><path class="cls-32" d="M32.49,8.48a1.59,1.59,0,1,0,1.59-1.59A1.59,1.59,0,0,0,32.49,8.48Z"/><rect class="cls-33" x="26.52" y="5.03" width="3.17" height="15.52"/><path class="cls-34" d="M27,19.9a2.52,2.52,0,0,1,2.24,0,.69.69,0,0,1,0,1.3,2.52,2.52,0,0,1-2.24,0A.69.69,0,0,1,27,19.9Z"/><path class="cls-35" d="M26.52,5A1.59,1.59,0,1,0,28.1,3.45,1.58,1.58,0,0,0,26.52,5Z"/><rect class="cls-36" x="20.54" y="1.58" width="3.17" height="15.52"/><path class="cls-37" d="M21,16.46a2.46,2.46,0,0,1,2.24,0c.62.35.62.93,0,1.29a2.46,2.46,0,0,1-2.24,0C20.39,17.39,20.39,16.81,21,16.46Z"/><path class="cls-38" d="M20.54,1.58A1.59,1.59,0,1,0,22.13,0,1.59,1.59,0,0,0,20.54,1.58Z"/><path class="cls-39" d="M44.28,57.71a2.48,2.48,0,0,1,1.12-1.94.78.78,0,0,1,.81-.06l13.4,7.74h0A1.58,1.58,0,0,1,58,66.19l0,0-13.4-7.74h0A.79.79,0,0,1,44.28,57.71Z"/><path class="cls-40" d="M44.4,51A2.47,2.47,0,0,1,45.52,49a.81.81,0,0,1,.78-.09h0l13.42,7.75h0a1.58,1.58,0,0,1-1.59,2.74l0,0L44.72,51.66h0A.77.77,0,0,1,44.4,51Z"/><path class="cls-41" d="M44.41,44.05a2.48,2.48,0,0,1,1.12-1.94A.79.79,0,0,1,46.3,42h0l13.42,7.76h0a1.58,1.58,0,1,1-1.59,2.74l0,0-13.4-7.73h0A.81.81,0,0,1,44.41,44.05Z"/><path class="cls-42" d="M44.41,37.16a2.45,2.45,0,0,1,1.12-1.94.78.78,0,0,1,.78-.09h0l13.43,7.75h0a1.58,1.58,0,1,1-1.58,2.74l0,0-13.4-7.74h0A.8.8,0,0,1,44.41,37.16Z"/></g></g></g></svg>