<svg xmlns="http://www.w3.org/2000/svg" viewBox="0 0 61.36 101.18"><defs><style>.cls-1{isolation:isolate;}.cls-2{fill:#6b99d1;opacity:0.15;mix-blend-mode:multiply;}.cls-3{fill:#dceeff;}.cls-4{fill:#fff;}.cls-5{fill:#a5cbfa;}.cls-6{fill:#c8e2ff;}.cls-7{fill:#2d2979;}.cls-8{fill:#ffa8a7;}.cls-9{fill:#c4d9ff;}.cls-10{fill:#aacaf9;}.cls-11{fill:#f5fbfb;}.cls-12{fill:#f28f8f;}.cls-13{fill:#3a2c6d;}.cls-14{fill:#eff6fe;}.cls-15{fill:#aad1fc;}.cls-16{fill:#aeb5b7;}</style></defs><title>asset-30</title><g class="cls-1"><g id="Layer_2" data-name="Layer 2"><g id="Objects"><path class="cls-2" d="M1.05,80.53,23.83,67.38a5.63,5.63,0,0,1,5.09,0L51.69,80.53c1.41.81,1.41,2.13,0,2.94L28.92,96.62a5.63,5.63,0,0,1-5.09,0L1.05,83.47C-.35,82.66-.35,81.34,1.05,80.53Z"/><path class="cls-3" d="M1.05,53.94,23.83,40.79a5.63,5.63,0,0,1,5.09,0L51.69,53.94c1.41.82,1.41,2.13,0,2.94L28.92,70a5.63,5.63,0,0,1-5.09,0L1.05,56.88C-.35,56.07-.35,54.75,1.05,53.94Z"/><path class="cls-4" d="M26.37,41.19a4.25,4.25,0,0,1,2.05.47L51.19,54.81c.41.24.56.47.56.6s-.15.37-.56.61L28.42,69.17a4.68,4.68,0,0,1-4.09,0L1.55,56c-.4-.24-.55-.48-.55-.61s.15-.36.55-.6L24.33,41.66a4.24,4.24,0,0,1,2-.47m0-1a5.24,5.24,0,0,0-2.54.6L1.05,53.94c-1.4.81-1.4,2.13,0,2.94L23.83,70a5.61,5.61,0,0,0,5.09,0L51.69,56.88c1.41-.81,1.41-2.12,0-2.94L28.92,40.79a5.25,5.25,0,0,0-2.55-.6Z"/><path class="cls-5" d="M0,78.4a1.82,1.82,0,0,0,1.05,1.47L23.83,93a5.1,5.1,0,0,0,2.54.6v-23A5.16,5.16,0,0,1,23.83,70L1.05,56.88a1.77,1.77,0,0,1-1-1.47Z"/><path class="cls-6" d="M52.75,78.4a1.82,1.82,0,0,1-1.06,1.47L28.92,93a5.11,5.11,0,0,1-2.55.6v-23A5.17,5.17,0,0,0,28.92,70L51.69,56.88a1.77,1.77,0,0,0,1.06-1.47Z"/><path class="cls-7" d="M45.34,81.14a4.32,4.32,0,0,0,0,3,13.68,13.68,0,0,1-.07,4.33.86.86,0,0,0,1.12.08s.41-4,1.44-3.58Z"/><path class="cls-8" d="M53.63,88.53c-.91-1.73-1.77-7.16-2-8.41a8.35,8.35,0,0,1,.07-2.4c.27-1.77,1.53-6.13,1.53-6.13l-3.84-1.24L48,77.05a3.67,3.67,0,0,1-.82,1.9,17.82,17.82,0,0,0-1.41,2.23,1.94,1.94,0,0,0,.32,2.62,16.51,16.51,0,0,1,2.44,2.89c.67,1.09.45,2.39,1.59,3.72s3.68.74,4.2.4C55,90.32,54.88,89.79,53.63,88.53Z"/><path class="cls-7" d="M53.28,89.85c-2.79.33-3.29-.1-3.68-3.25-.31-2.42-.63-4.16-1.54-5.19-1.1-1.24-1.1-1.93-.7-2.7-.27-.06-.6,0-.85.6-.57,1.31-1.22,1.46-1.36,2.42a2.85,2.85,0,0,0,1.07,2.46A4.52,4.52,0,0,1,48,86.71c.48,1.43.16,2.91.44,4.22,1.71,1.7,3.61,2.91,6.82,1.89.78-1.47,1.36-2.11-1.63-4.29C54.13,89.29,54.34,89.73,53.28,89.85Z"/><path class="cls-7" d="M39.74,87.17a4.38,4.38,0,0,0,.4,3,13.63,13.63,0,0,1,.46,4.3.86.86,0,0,0,1.12-.06s-.09-4,1-3.73Z"/><path class="cls-8" d="M48.88,93.5c-1.12-1.61-2.64-6.89-3-8.11a8.5,8.5,0,0,1-.22-2.4c0-1.79.48-5.29.62-6.29l-5.15-1,.75,7.08a3.78,3.78,0,0,1-.59,2,17.91,17.91,0,0,0-1.13,2.38,2,2,0,0,0,.65,2.56,15.78,15.78,0,0,1,2.76,2.57c.81,1,.74,2.32,2,3.49s3.74.29,4.21-.11C50.5,95.1,50.27,94.59,48.88,93.5Z"/><path class="cls-7" d="M48.69,94.84c-2.73.67-3.28.31-4.06-2.77-.59-2.37-1.12-4.06-2.16-5-1.24-1.09-1.33-1.77-1-2.59-.27,0-.59.11-.77.7-.4,1.37-1,1.6-1,2.57A2.8,2.8,0,0,0,41,90.08a4.56,4.56,0,0,1,2.08,2.3c.65,1.36.51,2.86,1,4.13,1.9,1.48,3.93,2.45,7,1,.59-1.55,1.09-2.26-2.14-4C49.47,94.18,49.73,94.59,48.69,94.84Z"/><path class="cls-8" d="M42,42.5a27.47,27.47,0,0,0,5.2,5.41A25.8,25.8,0,0,1,49,50a7.94,7.94,0,0,0,3.49,2.32c1.18.31,1.68.22,1.88,0s.1-.56-.41-.76a6.41,6.41,0,0,1-2.29-1.23s1.1.5,1.79.74a6.73,6.73,0,0,0,1.93.39c.65,0,1.33-.76.82-1s-1-.24-2-.61a6.3,6.3,0,0,1-1.51-.78,13.27,13.27,0,0,0,2.15.44,3.28,3.28,0,0,0,1.79-.2c.31-.13.57-.69-.11-.87a10.36,10.36,0,0,1-2.59-.6c-.8-.36-1.3-.74-1.12-.82s.62.17,1.43.12,1.55-.57,1.53-1-.17-.19-.95-.26a18.76,18.76,0,0,0-2.53-.43,7.68,7.68,0,0,1-2.48-.29c-.85-.25-2.76-2.54-4.22-4.64a30.09,30.09,0,0,1-3.74-7.58c-.88-2.89-1.93-8.29-2.67-10.17S37.1,20,35.88,20c-1.44-.05-2.06,1.84-1.68,3.48C34.88,26.33,38.07,37.37,42,42.5Z"/><path class="cls-9" d="M23.38,47.17C21.61,52,21.89,55.9,28.17,59.4c3.34,1.85,13.17,5.19,13.17,5.19a9.6,9.6,0,0,0-1,5.16c.15,3.93,1.39,13,1.39,13a4.38,4.38,0,0,0,4,0s.82-7.68,1.43-13c.77-6.71,1.41-6.74,1.07-8.19-.3-1.27-10-6.33-12-8.44l.32-.11,14.89,6.3a15.2,15.2,0,0,0-1.89,5.91c-.7,5.3-1.36,11-1.36,11s2.11,1.53,3.91,0c0,0,7.83-18.08,6.77-20.68C57.45,52,39.12,44.16,38.37,42.64Z"/><path class="cls-10" d="M36.21,53A14.27,14.27,0,0,0,39.14,48a21.52,21.52,0,0,1-.63,3.56c-.45,1.49,9.64,6.31,9.64,6.31L36.53,52.91Z"/><path class="cls-8" d="M27.2,15.33s.29,5.22.2,5.6-2,.75-2.6,1.2,2.82,5.76,4.54,6.55,7.05-1.2,7.43-3.85c.35-2.44-1.51-4.34-2.23-5a11.6,11.6,0,0,0-1.47,0l-.15-2.53C30.59,16.5,27.2,15.33,27.2,15.33Z"/><path class="cls-11" d="M26.47,21.44c-1.47.22-3.15,1-3.38,1.8A17.43,17.43,0,0,0,23.48,32,61.58,61.58,0,0,0,26.75,39a14.6,14.6,0,0,0,10.87-1.42A34.13,34.13,0,0,0,38.17,33c4.56-4,1-8.83-2.85-12.72a1.57,1.57,0,0,0-1.13-.47c-.27,0-.54,0-.74,0a9.92,9.92,0,0,1,2.19,3,2.69,2.69,0,0,1-1.12,3.67c-1.85.81-3.21.32-4.78-1.38C28.67,23.88,28.16,22.39,26.47,21.44Z"/><path class="cls-12" d="M33,19.3l-.12-2.05-1.66-.54L27.2,15.33s.05,1,.08,1.64c0,0,.17,1.78,3.11,3.18C30.91,20.39,32.88,20.58,33,19.3Z"/><path class="cls-8" d="M37.15,8.85h0a6.3,6.3,0,0,0-6.57-5.66A6.64,6.64,0,0,0,27.2,15.33a7.5,7.5,0,0,0,.53,1.18c1.3,1.75,4.47,2.63,5.55,2.65.92,0,1.86-.78,2.6-2.29A14,14,0,0,0,37.15,8.85Z"/><path class="cls-13" d="M36.47,6.19a6.6,6.6,0,0,0-6.91-2.86,6.64,6.64,0,0,0-2.36,12c-.07-.23-1.82-2.83,0-3.41a2.2,2.2,0,0,1,.37,1.37s.89-.08.69-1.13l-.16-.79a3.09,3.09,0,0,1,.51-2.32,2.64,2.64,0,0,0,.47-2.17,9,9,0,0,0,5.07.39A4.73,4.73,0,0,0,36.47,6.19Z"/><path class="cls-8" d="M27.2,15.33s-.16.33-.81.37c-1.21.06-2.63-2.2-1.65-3.73a1.59,1.59,0,0,1,2.44-.05Z"/><path class="cls-11" d="M26.39,38.36c.36.68.18,1.6-.58,3.15a39.08,39.08,0,0,0-2.89,6.84c.1.42,1.11,1.4,5.26,1.87,5.07.58,11.39-2.65,10.83-6.66-.34-2.15-1.14-3.83-1.39-5.94S26.39,38.36,26.39,38.36Z"/><path class="cls-13" d="M25.75,5.7a4.79,4.79,0,0,1,3.14-2.94c2.28-.5,6.35-.07,8.4,3.19a6.57,6.57,0,0,1,1.06,4.54s-5.81,1.39-9.29-3.61Z"/><path class="cls-13" d="M23.06,5.86a3.42,3.42,0,0,0,4.81-.18A3.43,3.43,0,0,0,28.44.9a3.42,3.42,0,0,0-4.81.19A3.41,3.41,0,0,0,23.06,5.86Z"/><path class="cls-8" d="M28.74,56.56a20.64,20.64,0,0,0-2.13-1.68,8.8,8.8,0,0,1-2.15-1.54c-.68-.68-1.68-3.51-2.2-6.28a27.65,27.65,0,0,1,.15-9.33A65.49,65.49,0,0,1,26.11,27c1-2.07.43-3.34-.47-4.25-1.05-1.08-2.15-1.06-3.4,1.84a59.93,59.93,0,0,0-3.88,12.63,28.34,28.34,0,0,0,.13,9.51,35.63,35.63,0,0,0,2.53,8c.33.74.38,1.38.83,2.87a9.64,9.64,0,0,0,2.28,4c1,.89,1.44,1.06,1.71.94s.31-.48-.08-.94a8.13,8.13,0,0,1-1.61-2.34s.8,1,1.34,1.62a7.85,7.85,0,0,0,1.61,1.34c.59.35,1.51-.06,1.12-.53s-.8-.73-1.58-1.6a8,8,0,0,1-1.08-1.51,15,15,0,0,0,1.79,1.51,3.22,3.22,0,0,0,1.72.7c.33,0,.78-.37.23-.89A11.84,11.84,0,0,1,27.17,58c-.58-.76-.89-1.37-.7-1.36s.5.48,1.26.83,1.63.23,1.78-.19S29.43,57,28.74,56.56Z"/><path class="cls-14" d="M58.65,50.81l-10.32-6a.62.62,0,0,0-.59,0L29.64,55.3l10.61,6.13Z"/><polygon class="cls-15" points="40.16 60.55 34.59 57.34 50.87 47.95 56.46 51.14 40.16 60.55"/><polygon class="cls-16" points="37.42 51.63 37.53 51.68 40.25 53.26 45.1 50.46 45.21 50.4 42.38 48.77 37.42 51.63"/><polygon class="cls-15" points="37.53 51.68 40.25 53.26 45.1 50.46 42.38 48.88 37.53 51.68"/><path class="cls-6" d="M29.64,55.3v.24a1,1,0,0,0,.5.87L39.76,62a1,1,0,0,0,.49.13,1,1,0,0,0,.5-.13l17.4-10.05a1,1,0,0,0,.5-.86v-.24L40.25,61.43Z"/><path class="cls-15" d="M40.25,61.43v.66a1,1,0,0,0,.5-.13l17.4-10.05a1,1,0,0,0,.5-.86v-.24Z"/><path class="cls-14" d="M40.53,61.57a1.18,1.18,0,0,0,1-.07l17.32-10a1.15,1.15,0,0,0,.58-.82l1.89-11.31a1.23,1.23,0,0,0,0-.19,1.19,1.19,0,0,0-.35-.84L43,48.73a.88.88,0,0,0-.43.6Z"/><path class="cls-6" d="M40.25,61.43l.12.07.16.07,2-12.24a.88.88,0,0,1,.43-.6l18-10.4a1.08,1.08,0,0,0-.24-.18l-18,10.41a.87.87,0,0,0-.42.61Z"/><path class="cls-15" d="M50.29,51.13A3.84,3.84,0,0,1,52,48.89c.83-.49,1.41-.26,1.28.49a3.77,3.77,0,0,1-1.74,2.25C50.74,52.11,50.16,51.89,50.29,51.13Z"/><path class="cls-2" d="M39.55,92.56l6.31-3.64c4.28-2.47,10.19-3.06,13.2-1.33s2,5.15-2.3,7.62l-6.31,3.64c-4.28,2.47-10.19,3.07-13.2,1.33S35.27,95,39.55,92.56Z"/></g></g></g></svg>