<?xml version="1.0" encoding="iso-8859-1"?>
<!-- Generator: Adobe Illustrator 19.0.0, SVG Export Plug-In . SVG Version: 6.00 Build 0)  -->
<svg version="1.1" id="Capa_1" xmlns="http://www.w3.org/2000/svg" xmlns:xlink="http://www.w3.org/1999/xlink" x="0px" y="0px"
	 viewBox="0 0 448 448" style="enable-background:new 0 0 448 448;" xml:space="preserve">
<polygon style="fill:#FFDC69;" points="336,0 104,0 104,8 104,40 24,40 24,144 104,144 104,176 104,448 216,448 312,448 424,448 
	424,88 424,80 344,0 "/>
<rect x="24" y="40" style="fill:#FF8C5A;" width="272" height="104"/>
<rect x="216" y="288" style="fill:#FEEC9F;" width="96" height="160"/>
<polygon style="fill:#FFFFFF;" points="256,256 232,256 232,232 272,192 296,216 "/>
<polygon style="fill:#FFB855;" points="344,0 336,0 336,88 424,88 424,80 "/>
<g>
	<rect x="240" y="312" style="fill:#FFFFFF;" width="24" height="16"/>
	<rect x="240" y="344" style="fill:#FFFFFF;" width="48" height="16"/>
	<rect x="240" y="376" style="fill:#FFFFFF;" width="48" height="16"/>
	<rect x="240" y="408" style="fill:#FFFFFF;" width="48" height="16"/>
	<rect x="48" y="104" style="fill:#FFFFFF;" width="16" height="16"/>
	<path style="fill:#FFFFFF;" d="M99.192,64.168H77.368v55.808h16v-17.16h5.824c10.368,0,22.488-5.192,22.488-19.832
		C121.68,70.672,113.904,64.168,99.192,64.168z M93.376,77.168h5.16c5.248,0,7.488,1.736,7.488,5.816
		c0,4.528-2.52,6.824-7.488,6.824h-5.16C93.376,89.808,93.376,77.168,93.376,77.168z"/>
	<path style="fill:#FFFFFF;" d="M128.8,64.168v55.808h16v-17.16h5.824c10.376,0,22.488-5.192,22.488-19.832
		c0-12.312-7.776-18.824-22.488-18.824H128.8V64.168z M144.792,77.168h5.16c5.248,0,7.488,1.736,7.488,5.816
		c0,4.528-2.52,6.824-7.488,6.824h-5.16V77.168z"/>
	<path style="fill:#FFFFFF;" d="M250.864,64.168l-3.352,9.352c-0.832,2.08-1.792,4.536-2.784,7.392
		c-0.304-0.72-0.6-1.424-0.88-2.104c-0.816-1.976-1.552-3.752-2.272-5.296l-3.88-9.344h-17.672h-0.264h-44.376v13.68h14.32v42.128
		h16V77.84h14.32V64.656l14,26.648l-15.096,28.656H236.2l4.208-10.176c0.96-2.328,1.936-4.728,2.92-7.4
		c1.136,2.816,2.12,5.136,3.192,7.424l4.552,10.16h17.936l-15.112-27.992l14.248-27.816h-17.28V64.168z"/>
</g>
<g>
	<rect x="336" y="328" style="fill:#FEEC9F;" width="40" height="16"/>
	<rect x="352" y="360" style="fill:#FEEC9F;" width="16" height="16"/>
	<rect x="384" y="360" style="fill:#FEEC9F;" width="16" height="16"/>
	<rect x="336" y="392" style="fill:#FEEC9F;" width="56" height="16"/>
	<rect x="152" y="360" style="fill:#FEEC9F;" width="40" height="16"/>
	<rect x="160" y="328" style="fill:#FEEC9F;" width="16" height="16"/>
	<rect x="128" y="328" style="fill:#FEEC9F;" width="16" height="16"/>
	<rect x="136" y="296" style="fill:#FEEC9F;" width="56" height="16"/>
	<rect x="320" y="216" style="fill:#FEEC9F;" width="56" height="16"/>
	<rect x="152" y="216" style="fill:#FEEC9F;" width="56" height="16"/>
	<rect x="344" y="248" style="fill:#FEEC9F;" width="16" height="16"/>
	<rect x="376" y="248" style="fill:#FEEC9F;" width="24" height="16"/>
	<rect x="128" y="248" style="fill:#FEEC9F;" width="16" height="16"/>
	<rect x="160" y="248" style="fill:#FEEC9F;" width="24" height="16"/>
</g>
<g>
</g>
<g>
</g>
<g>
</g>
<g>
</g>
<g>
</g>
<g>
</g>
<g>
</g>
<g>
</g>
<g>
</g>
<g>
</g>
<g>
</g>
<g>
</g>
<g>
</g>
<g>
</g>
<g>
</g>
</svg>
