<?xml version="1.0" standalone="no"?>
<!DOCTYPE svg PUBLIC "-//W3C//DTD SVG 20010904//EN"
 "http://www.w3.org/TR/2001/REC-SVG-20010904/DTD/svg10.dtd">
<svg version="1.0" xmlns="http://www.w3.org/2000/svg"
 width="513.000000pt" height="513.000000pt" viewBox="0 0 513.000000 513.000000"
 preserveAspectRatio="xMidYMid meet">
<metadata>
Created by potrace 1.11, written by Peter Selinger 2001-2013
</metadata>
<g transform="translate(0.000000,513.000000) scale(0.100000,-0.100000)"
fill="#000000" stroke="none">
<path d="M1548 4934 c-2 -1 -30 -5 -63 -9 -190 -20 -410 -86 -590 -178 -166
-85 -272 -162 -401 -291 -245 -246 -373 -519 -399 -850 l-7 -83 29 -7 c47 -12
153 -56 245 -102 150 -75 288 -172 401 -281 l57 -56 -81 -49 c-113 -68 -213
-146 -308 -239 -38 -37 -124 -138 -135 -158 -5 -9 -12 -18 -16 -21 -10 -8 -86
-132 -112 -185 -41 -80 -88 -222 -110 -330 -17 -84 -20 -135 -19 -315 0 -118
3 -242 6 -275 37 -384 226 -717 550 -968 50 -38 97 -72 105 -75 8 -3 29 -15
45 -27 79 -53 324 -159 418 -180 12 -2 49 -11 82 -19 64 -16 100 -22 210 -36
40 -5 831 -9 1829 -10 l1759 0 -7 97 c-3 53 -13 126 -22 162 -9 36 -17 74 -19
84 -9 42 -51 148 -88 222 -97 196 -236 364 -414 502 -207 160 -529 296 -778
328 -27 3 -61 9 -75 11 -14 3 -410 7 -880 9 -741 2 -863 5 -915 19 -85 22
-189 59 -268 95 -75 34 -207 116 -207 129 0 4 253 8 563 7 615 0 717 4 880 35
620 119 1116 566 1232 1111 20 95 32 215 26 264 -1 7 -351 10 -1032 9 -1134
-2 -1059 -5 -1259 62 -110 37 -273 118 -325 160 l-30 24 1070 1 c589 0 1086 2
1105 4 441 34 817 200 1098 486 225 229 368 533 388 827 l7 100 -1771 -1
c-975 0 -1773 -1 -1774 -3z"/>
</g>
</svg>
